<svg xmlns="http://www.w3.org/2000/svg" width="70" height="70" viewBox="0 0 70 70">
  <g id="ai_clr" transform="translate(0 -2.5)">
    <rect id="Rectangle_333" data-name="Rectangle 333" width="70" height="70" transform="translate(0 2.5)" fill="rgba(255,255,255,0)"/>
    <circle id="Ellipse_27" data-name="Ellipse 27" cx="0.833" cy="0.833" r="0.833" transform="translate(0 62.917)" fill="#312450"/>
    <path id="Path_11134" data-name="Path 11134" d="M8.083,147.5H6.833a.833.833,0,1,0,0,1.667h1.25a.833.833,0,1,0,0-1.667Z" transform="translate(-3.5 -84.583)" fill="#312450"/>
    <path id="Path_11135" data-name="Path 11135" d="M77.231,155.5H73.769a.836.836,0,0,0,0,1.667h3.462a.836.836,0,0,0,0-1.667Zm-25,0H48.769a.836.836,0,0,0,0,1.667h3.462a.836.836,0,0,0,0-1.667Zm19.1,0H54.667a.833.833,0,0,0,0,1.667h6.642V158H58a.833.833,0,1,0,0,1.667H68.417a.833.833,0,1,0,0-1.667H64.692v-.833h6.642a.833.833,0,1,0,0-1.667Z" transform="translate(-28 -89.25)" fill="#2e983e"/>
    <path id="Path_11136" data-name="Path 11136" d="M38.583,35.289v-2.2a.831.831,0,0,0-.421-.725l-5.833-3.333a.835.835,0,0,0-1.246.725V38.7L27.75,36.018v-6.8a2.917,2.917,0,1,0-1.667,0v7.2a.836.836,0,0,0,.312.65l4.583,3.679a.574.574,0,0,0,.1.071v8.933a.828.828,0,0,0,.2.542l2.3,2.683v6.9a2.917,2.917,0,1,0,1.667,0v-7.2a.828.828,0,0,0-.2-.542l-2.3-2.683V31.189l4.167,2.379v1.721a2.917,2.917,0,1,0,1.667,0ZM25.666,26.418a1.248,1.248,0,1,1,.366.884A1.25,1.25,0,0,1,25.666,26.418Zm10,36.25a1.248,1.248,0,1,1-.366-.884,1.25,1.25,0,0,1,.366.884ZM37.75,39.334a1.248,1.248,0,1,1,.884-.366A1.25,1.25,0,0,1,37.75,39.334Z" transform="translate(-14 -12.251)" fill="#312450"/>
    <path id="Path_11137" data-name="Path 11137" d="M45.67,38.746l-3.088-3.092V29.333a.833.833,0,0,0-1.667,0V36a.819.819,0,0,0,.246.588l3.088,3.092V51.9L38,58.154V52.129a2.917,2.917,0,1,0-1.667,0v8.037a.837.837,0,0,0,.513.771.862.862,0,0,0,.321.063.816.816,0,0,0,.588-.246l7.917-7.917a.819.819,0,0,0,.246-.588V39.333A.819.819,0,0,0,45.67,38.746Zm-8.5,11.837a1.248,1.248,0,1,1,.884-.366,1.25,1.25,0,0,1-.884.366ZM26.75,56.954V51.3a2.917,2.917,0,1,0-1.667,0v5.658a2.917,2.917,0,1,0,1.667,0ZM24.666,48.5a1.248,1.248,0,1,1,.366.884,1.25,1.25,0,0,1-.366-.884ZM25.916,61a1.248,1.248,0,1,1,.884-.366,1.25,1.25,0,0,1-.884.366Z" transform="translate(-13.416 -15.167)" fill="#2e983e"/>
    <path id="Path_11138" data-name="Path 11138" d="M157.083,147.5h-1.25a.833.833,0,1,0,0,1.667h1.25a.833.833,0,1,0,0-1.667Z" transform="translate(-90.417 -84.583)" fill="#312450"/>
    <circle id="Ellipse_28" data-name="Ellipse 28" cx="0.833" cy="0.833" r="0.833" transform="translate(68.333 62.917)" fill="#312450"/>
    <path id="Path_11139" data-name="Path 11139" d="M71.55,75.156H62.275a4.421,4.421,0,0,0,.925-2.7V70.714l1.379-1.092a.831.831,0,0,0,.163-1.138L63.7,67.022l1.662-.579a.833.833,0,0,0,.517-1.054l-.883-2.621h2.421a1.752,1.752,0,0,0,1.437-.758,1.806,1.806,0,0,0,.2-1.658L65.5,50.91,66.512,48.7a.82.82,0,0,0,.075-.346V43.735A20.181,20.181,0,0,0,59.15,28.406a22.863,22.863,0,0,0-15.233-4.9.731.731,0,0,0-.167-.017H40.417a.836.836,0,0,0-.833.833v6.667a.819.819,0,0,0,.246.587l3.333,3.333a.819.819,0,0,0,.588.246h5a.819.819,0,0,0,.588-.246L50.7,33.556a2.914,2.914,0,1,0-1.179-1.179L48.4,33.489H44.1L41.25,30.643V25.156h2.421a.78.78,0,0,0,.242.017c7.417-.279,15.058,3.079,18.75,9.983H59.879a2.917,2.917,0,1,0-3.629,3.629v7.621H50a.836.836,0,0,0-.833.833v4.583H42.5a.819.819,0,0,0-.588.246l-6.667,6.667a.819.819,0,0,0-.246.588V66.11a2.917,2.917,0,1,0,1.667,0V59.668l6.179-6.179H57.917a.833.833,0,0,0,.746-.462l2.5-5a.81.81,0,0,0,.088-.371V44.739h3.671v3.433l-1.079,2.358a.856.856,0,0,0-.025.642l3.675,9.771a.127.127,0,0,1-.013.121.081.081,0,0,1-.067.038H63.833a.832.832,0,0,0-.679.35.842.842,0,0,0-.113.75l.992,2.938-1.937.675a.821.821,0,0,0-.521.533.831.831,0,0,0,.117.738l1.233,1.725-1.075.846a.836.836,0,0,0-.317.654v2.142A2.724,2.724,0,0,1,60.217,74.8a2.551,2.551,0,0,1-1.3.358c-3.483,0-16.837-4.383-16.837-11.667V61.751a.833.833,0,0,0-1.667,0v1.737c0,5.75,6.263,9.638,11.642,11.667H15.95a.84.84,0,1,0,0,1.667h55.6a.84.84,0,1,0,0-1.667ZM52.083,29.739a1.248,1.248,0,1,1-.884.366,1.25,1.25,0,0,1,.884-.366Zm-15,39.167a1.248,1.248,0,1,1-.366-.884,1.25,1.25,0,0,1,.366.884Zm18.75-32.917a1.248,1.248,0,1,1,.366.884,1.25,1.25,0,0,1-.366-.884Zm4.583,7.083a.836.836,0,0,0-.833.833V47.46L57.4,51.822H50.833v-3.75h6.25a.833.833,0,0,0,.833-.833V38.785a2.949,2.949,0,0,0,1.963-1.962h3.567a20.155,20.155,0,0,1,1.429,6.25Z" transform="translate(-8.75 -12.239)" fill="#312450"/>
    <path id="Path_11140" data-name="Path 11140" d="M90.75,56.75a2.941,2.941,0,0,0-1.388.35L88,55.746a.819.819,0,0,0-.588-.246H82.833a.836.836,0,0,0-.833.833V63a.842.842,0,0,0,.292.633l2.625,2.25V70.5h1.667v-5a.828.828,0,0,0-.292-.633l-2.625-2.25v-5.45h3.4l1.113,1.112A2.917,2.917,0,1,0,90.75,56.75Zm0,4.167a1.248,1.248,0,1,1,.884-.366,1.25,1.25,0,0,1-.884.366Z" transform="translate(-47.833 -30.917)" fill="#2e983e"/>
    <path id="Path_11141" data-name="Path 11141" d="M26.989,14.167a1.25,1.25,0,1,0-1.25-1.25A1.25,1.25,0,0,0,26.989,14.167Zm0-1.875a.625.625,0,1,1-.625.625.625.625,0,0,1,.625-.625ZM66.512,20a.833.833,0,1,0,.833.833A.833.833,0,0,0,66.512,20Zm0,1.25a.417.417,0,1,1,.417-.417A.417.417,0,0,1,66.512,21.25Zm-6.732-10a.833.833,0,1,0,.833.833.833.833,0,0,0-.833-.833Zm0,1.25a.417.417,0,1,1,.417-.417A.417.417,0,0,1,59.781,12.5Zm7.148-10a.833.833,0,1,0,.833.833A.833.833,0,0,0,66.929,2.5Zm0,1.25a.417.417,0,1,1,.417-.417.417.417,0,0,1-.417.417ZM9.362,21.667a.833.833,0,1,0-.833.833.833.833,0,0,0,.833-.833Zm-1.25,0a.417.417,0,1,1,.417.417.417.417,0,0,1-.417-.417Z" transform="translate(-4.489)" fill="#312450"/>
    <path id="Path_11142" data-name="Path 11142" d="M6.248,10.314,6.868,9.5l-.391-.222-.4.913H6.066l-.4-.906-.4.228.613.8v.013L4.918,10.2v.443l.965-.124v.013l-.62.8.372.235.424-.919h.013l.391.912.411-.235-.626-.783v-.013l.984.118V10.2l-.984.13Z" transform="translate(-2.869 -3.954)" fill="#2e983e"/>
    <path id="Path_11143" data-name="Path 11143" d="M37.556,5.221l-.357.458.214.135.244-.53h.007l.225.525.237-.135-.36-.45V5.217l.567.067V5.029l-.567.075V5.1l.357-.469L37.9,4.5l-.229.525h-.007L37.428,4.5l-.229.131.353.458V5.1L37,5.029v.255l.556-.071Z" transform="translate(-21.583 -1.167)" fill="#2e983e"/>
    <path id="Path_11144" data-name="Path 11144" d="M159.851,27.15v-.435l-.965.128v-.013l.607-.8-.384-.218-.39.9h-.013l-.4-.889-.39.224.6.78v.013l-.94-.122v.435l.946-.121v.013l-.608.78.365.23.416-.9h.012l.384.9.4-.23-.614-.767v-.013Z" transform="translate(-91.922 -13.6)" fill="#2e983e"/>
    <path id="Path_11145" data-name="Path 11145" d="M79.125,12.06l.524-.69-.331-.188-.337.772h-.011l-.342-.767-.337.193.519.673v.011l-.811-.1v.375l.817-.1v.011l-.524.673.314.2.359-.778h.011l.331.772.348-.2-.53-.662v-.011l.833.1v-.375l-.833.11Z" transform="translate(-45.5 -5.065)" fill="#2e983e"/>
  </g>
</svg>
