<svg xmlns="http://www.w3.org/2000/svg" width="70" height="70" viewBox="0 0 70 70">
  <g id="design_clr" transform="translate(-1024 -1968.404)">
    <path id="design-thinking" d="M54.786,14.41V41.376H44.546V14.41H44.5l.348-.705,4.241-8.7.446-.893.446.87,4.464,8.7.375.723ZM1.772,31.324l.054-.076a5.151,5.151,0,0,1,.567-.446,5.665,5.665,0,0,1,1.3-.607A9.115,9.115,0,0,1,4.9,29.868V1.821a3.125,3.125,0,0,0-2.5,1.71,8.144,8.144,0,0,0-.629,3.611c-.107,5.482-.071,11.017-.031,16.517,0,2.634.031,5.267.036,7.665ZM26.23,9.923a.781.781,0,0,1,.277-.549.8.8,0,0,1,.567-.187h.054a.786.786,0,0,1,.683.835h0a.112.112,0,0,1,0,.04l-.147,1.7h0a.218.218,0,0,1,0,.054.786.786,0,0,1-.272.5.8.8,0,0,1-.567.187H26.77a.786.786,0,0,1-.679-.839h0a.125.125,0,0,1,0-.04l.134-1.692Zm-.478,7.008a1.625,1.625,0,0,1,1.018-.679,1.719,1.719,0,0,1,1.1.156,1.826,1.826,0,0,1,.777.75,1.424,1.424,0,0,1,.138.344,1.786,1.786,0,0,1,.522.094,2.232,2.232,0,0,1,.969.67,2.183,2.183,0,0,1,.513,1.161,2.125,2.125,0,0,1-.027.6,2.357,2.357,0,0,1,.446.562,1.951,1.951,0,0,1,.281,1.058,1.857,1.857,0,0,1-.384,1.08,2.5,2.5,0,0,1-.6.58,2.393,2.393,0,0,1-.415,1.433,1.942,1.942,0,0,1-1.17.817,1.888,1.888,0,0,1-2.205,1.277,1.522,1.522,0,0,1-.893-.7,1.643,1.643,0,0,1-1.04.732,1.728,1.728,0,0,1-1.4-.348,1.674,1.674,0,0,1-.625-.933,1.665,1.665,0,0,1-.446-.089h0a2.232,2.232,0,0,1-.929-.643,2.192,2.192,0,0,1-.518-1.116,2.089,2.089,0,0,1,0-.665,2.451,2.451,0,0,1-.415-.5v-.036a2,2,0,0,1-.286-1.04h0a1.919,1.919,0,0,1,.362-1.138,2.643,2.643,0,0,1,.585-.571v-.174a2.339,2.339,0,0,1,.522-1.411,1.893,1.893,0,0,1,1.125-.679,1.6,1.6,0,0,1,.049-.156,1.786,1.786,0,0,1,.777-.893,1.714,1.714,0,0,1,1.2-.21,1.616,1.616,0,0,1,1,.679Zm3,1.415a1.759,1.759,0,0,1-.339.585.42.42,0,1,1-.643-.54.714.714,0,0,0,.121-.83.964.964,0,0,0-.415-.4.866.866,0,0,0-.545-.085c-.308.067-.607.353-.763.987h0v6.763a.411.411,0,0,1,.138.25c.1.589.344.893.62.946a.955.955,0,0,0,.795-.187.893.893,0,0,0,.388-.661c0-.29-.219-.62-.808-.924a.424.424,0,0,1,.379-.754,2.232,2.232,0,0,1,1.187,1.192,1.152,1.152,0,0,0,.5-.446,1.571,1.571,0,0,0,.254-1.094h0a.42.42,0,0,1,.205-.42,1.928,1.928,0,0,0,.58-.5,1.094,1.094,0,0,0,.223-.607,1.134,1.134,0,0,0-.17-.612,1.7,1.7,0,0,0-.446-.482.42.42,0,0,1-.165-.487,1.169,1.169,0,0,0,.058-.531,1.3,1.3,0,0,0-.308-.7,1.339,1.339,0,0,0-.6-.42.83.83,0,0,0-.268-.049Zm-.893,1.866a.422.422,0,0,1,.513-.67c.071.054.138.112.205.17h0a2.393,2.393,0,0,1,.777,1.571,2.531,2.531,0,0,1-.478,1.674q-.08.107-.174.214a.424.424,0,1,1-.629-.567,1.784,1.784,0,0,0,.116-.143,1.678,1.678,0,0,0,.321-1.112,1.553,1.553,0,0,0-.5-1.013h0l-.134-.107Zm-2.388,4.625V18.3h-.04c-.156-.634-.446-.924-.763-.991a.862.862,0,0,0-.6.116.893.893,0,0,0-.406.446.777.777,0,0,0,.286.857.414.414,0,1,1-.576.594,1.884,1.884,0,0,1-.62-.942,1.1,1.1,0,0,0-.5.357,1.527,1.527,0,0,0-.33.893,1.785,1.785,0,0,0,0,.3.415.415,0,0,1-.2.415,2.049,2.049,0,0,0-.567.5,1.089,1.089,0,0,0-.223.638,1.12,1.12,0,0,0,.165.6v.027a1.576,1.576,0,0,0,.406.446.446.446,0,0,1,.161.487,1.2,1.2,0,0,0-.054.567,1.339,1.339,0,0,0,.317.679,1.4,1.4,0,0,0,.567.4h0a1.08,1.08,0,0,0,.2.045A2.308,2.308,0,0,1,23.94,23.5a.42.42,0,0,1,.567.183.446.446,0,0,1-.187.567c-.62.317-.857.674-.857.987a.8.8,0,0,0,.339.612.893.893,0,0,0,.71.192c.308-.062.607-.357.763-1a.411.411,0,0,1,.129-.21Zm-2.616-5.071a.421.421,0,1,1,.589.6A1.509,1.509,0,0,0,23,21.4a1.665,1.665,0,0,0,.375,1.116.424.424,0,0,1-.656.531,2.5,2.5,0,0,1-.562-1.683,2.353,2.353,0,0,1,.71-1.6ZM20.239,27.6c-.312-.4-.612-.812-.933-1.259a9.088,9.088,0,0,1-.853-1.611,9.62,9.62,0,0,1-.536-1.844,8.142,8.142,0,0,1-.112-1.9,8.374,8.374,0,0,1,.371-1.937,9.776,9.776,0,0,1,.893-1.951l.045-.067A7.861,7.861,0,0,1,20.8,15.2a7.441,7.441,0,0,1,2.165-1.178H23a7.812,7.812,0,0,1,1.839-.388,8.3,8.3,0,0,1,1.969.062,8.856,8.856,0,0,1,1.861.487,8.682,8.682,0,0,1,1.705.893,8.1,8.1,0,0,1,1.83,1.683,7.209,7.209,0,0,1,1.165,2.12,7.859,7.859,0,0,1,.228,4.464,8.776,8.776,0,0,1-.58,1.6,17.963,17.963,0,0,1-2.326,3.344c-.446.58-.933,1.156-1.308,1.687a.487.487,0,0,1-.513.192h0l-6.79.629a.487.487,0,0,1-.509-.357,10.267,10.267,0,0,0-.607-1.6,6.758,6.758,0,0,0-.745-1.245Zm-.121-1.786a11.976,11.976,0,0,0,.893,1.2,7.763,7.763,0,0,1,.848,1.42,12.2,12.2,0,0,1,.531,1.366l6.352-.589c.371-.513.777-1.013,1.187-1.522a17.235,17.235,0,0,0,2.2-3.134,7.469,7.469,0,0,0,.509-1.433,6.651,6.651,0,0,0,.2-1.437,6.928,6.928,0,0,0-.089-1.3,7.405,7.405,0,0,0-.3-1.183,6.25,6.25,0,0,0-1-1.835,7.062,7.062,0,0,0-1.611-1.478,7.772,7.772,0,0,0-1.509-.777,7.919,7.919,0,0,0-1.661-.446,7.589,7.589,0,0,0-1.741-.054,7,7,0,0,0-1.607.335h-.04a6.388,6.388,0,0,0-1.884,1.018,6.906,6.906,0,0,0-1.478,1.6h0a8.312,8.312,0,0,0-.8,1.75,7.218,7.218,0,0,0-.321,1.705,6.986,6.986,0,0,0,.1,1.67,8.442,8.442,0,0,0,.478,1.647,8.071,8.071,0,0,0,.763,1.442Zm8.607,8.745a3.928,3.928,0,0,1-1.509,1.339,3.535,3.535,0,0,1-3.33,0,3.446,3.446,0,0,1-.96-.8l5.8-.545Zm.723-3.187v.509a5.147,5.147,0,0,1-.031.741l-.143.536-7.035.656-.107-.286-.21-1.129v-.321ZM16.95,12.794a.79.79,0,0,1,.585-1.339.777.777,0,0,1,.554.241l1.219,1.25a.786.786,0,1,1-1.125,1.1Zm-2.531,8.593a.8.8,0,0,1-.545-.246.8.8,0,0,1-.219-.567.781.781,0,0,1,.246-.554.8.8,0,0,1,.567-.219l1.732.036a.781.781,0,0,1,.554.246.8.8,0,0,1,.219.567h0v.027a.763.763,0,0,1-.241.513.786.786,0,0,1-.567.219h-.031l-1.71-.036Zm22.713-1.254h.027a.772.772,0,0,1,.536.205.79.79,0,0,1,.259.545v.036a.8.8,0,0,1-.205.536.772.772,0,0,1-.549.259l-1.728.089A.8.8,0,0,1,34.9,21.6a.772.772,0,0,1-.259-.549.8.8,0,0,1,.205-.567.772.772,0,0,1,.549-.259c.576-.031,1.156-.067,1.736-.089ZM34.1,13.062a.808.808,0,0,1,.522-.308.8.8,0,0,1,.585.152h0a.786.786,0,0,1,.3.522.777.777,0,0,1-.147.585L34.323,15.4a.79.79,0,0,1-1.107.156.781.781,0,0,1-.308-.522.763.763,0,0,1,.152-.585ZM6.656,30.65a.848.848,0,0,1-.21.518.893.893,0,0,1-.531.295h0a10.562,10.562,0,0,0-1.393.3,4.339,4.339,0,0,0-1.147.522h0a3.571,3.571,0,0,0-.893.835,5.91,5.91,0,0,0-.728,1.339A7.415,7.415,0,0,0,1.9,36.368a4.12,4.12,0,0,0,.634,1.513h0a3.714,3.714,0,0,0,1.228,1.076h0a6.325,6.325,0,0,0,1.955.638H41.184v1.759H5.674a5.544,5.544,0,0,1-2.5-.732A6.165,6.165,0,0,1,1.1,38.881a5.8,5.8,0,0,1-.893-2.116,9.339,9.339,0,0,1-.219-2.509V10.267c0-1.286,0-2.589.027-3.835A8.3,8.3,0,0,1,1.134,2.04C1.951.857,3.352.045,5.691,0h.1a.9.9,0,0,1,.893.893V4.91h38.7L44.532,6.7H6.682V30.65ZM46.09,13.414h7.142L50.385,7.95H48.746l-2.678,5.464Z" transform="translate(1033.024 1981)" fill="#0a0a7a"/>
    <path id="design-thinking-2" data-name="design-thinking" d="M30.01,12.461a.781.781,0,0,1,.277-.549.8.8,0,0,1,.567-.187h.054a.786.786,0,0,1,.683.835h0a.112.112,0,0,1,0,.04l-.147,1.7h0a.218.218,0,0,1,0,.054.786.786,0,0,1-.272.5.8.8,0,0,1-.567.187H30.55a.786.786,0,0,1-.679-.839h0a.125.125,0,0,1,0-.04l.134-1.692Zm-.478,7.008a1.625,1.625,0,0,1,1.018-.679,1.719,1.719,0,0,1,1.1.156,1.826,1.826,0,0,1,.777.75,1.424,1.424,0,0,1,.138.344,1.786,1.786,0,0,1,.522.094,2.232,2.232,0,0,1,.969.67,2.183,2.183,0,0,1,.513,1.161,2.125,2.125,0,0,1-.027.6,2.357,2.357,0,0,1,.446.562,1.951,1.951,0,0,1,.281,1.058,1.857,1.857,0,0,1-.384,1.08,2.5,2.5,0,0,1-.6.58,2.393,2.393,0,0,1-.415,1.433,1.942,1.942,0,0,1-1.17.817,1.888,1.888,0,0,1-2.205,1.277,1.522,1.522,0,0,1-.893-.7,1.643,1.643,0,0,1-1.04.732,1.728,1.728,0,0,1-1.4-.348,1.674,1.674,0,0,1-.625-.933,1.665,1.665,0,0,1-.446-.089h0a2.232,2.232,0,0,1-.929-.643,2.192,2.192,0,0,1-.518-1.116,2.089,2.089,0,0,1,0-.665,2.451,2.451,0,0,1-.415-.5v-.036a2,2,0,0,1-.286-1.04h0A1.919,1.919,0,0,1,24.3,22.9a2.643,2.643,0,0,1,.585-.571v-.174a2.339,2.339,0,0,1,.522-1.411,1.893,1.893,0,0,1,1.125-.679,1.6,1.6,0,0,1,.049-.156,1.786,1.786,0,0,1,.777-.893,1.714,1.714,0,0,1,1.2-.21,1.616,1.616,0,0,1,1,.679Zm3,1.415a1.759,1.759,0,0,1-.339.585.42.42,0,1,1-.643-.54.714.714,0,0,0,.121-.83.964.964,0,0,0-.415-.4.866.866,0,0,0-.545-.085c-.308.067-.607.353-.763.987h0v6.763a.411.411,0,0,1,.138.25c.1.589.344.893.62.946a.955.955,0,0,0,.795-.187.893.893,0,0,0,.388-.661c0-.29-.219-.62-.808-.924a.424.424,0,0,1,.379-.754,2.232,2.232,0,0,1,1.187,1.192,1.152,1.152,0,0,0,.5-.446,1.571,1.571,0,0,0,.254-1.094h0a.42.42,0,0,1,.205-.42,1.928,1.928,0,0,0,.58-.5,1.094,1.094,0,0,0,.223-.607,1.134,1.134,0,0,0-.17-.612,1.7,1.7,0,0,0-.446-.482.42.42,0,0,1-.165-.487,1.169,1.169,0,0,0,.058-.531,1.3,1.3,0,0,0-.308-.7,1.339,1.339,0,0,0-.6-.42.83.83,0,0,0-.268-.049Zm-.893,1.866a.422.422,0,0,1,.513-.67c.071.054.138.112.205.17h0a2.393,2.393,0,0,1,.777,1.571,2.531,2.531,0,0,1-.478,1.674q-.08.107-.174.214a.424.424,0,1,1-.629-.567A1.785,1.785,0,0,0,31.969,25a1.678,1.678,0,0,0,.321-1.112,1.553,1.553,0,0,0-.5-1.013h0l-.134-.107Zm-2.388,4.625V20.84h-.04c-.156-.634-.446-.924-.763-.991a.862.862,0,0,0-.6.116.893.893,0,0,0-.406.446.777.777,0,0,0,.286.857.414.414,0,1,1-.576.594,1.884,1.884,0,0,1-.62-.942,1.1,1.1,0,0,0-.5.357,1.527,1.527,0,0,0-.33.893,1.785,1.785,0,0,0,0,.3.415.415,0,0,1-.2.415,2.049,2.049,0,0,0-.567.5,1.089,1.089,0,0,0-.223.638,1.12,1.12,0,0,0,.165.6v.027a1.576,1.576,0,0,0,.406.446.446.446,0,0,1,.161.487,1.2,1.2,0,0,0-.054.567,1.339,1.339,0,0,0,.317.679,1.4,1.4,0,0,0,.567.4h0a1.08,1.08,0,0,0,.2.045,2.308,2.308,0,0,1,1.237-1.241.42.42,0,0,1,.567.183.446.446,0,0,1-.187.567c-.62.317-.857.674-.857.987a.8.8,0,0,0,.339.612.893.893,0,0,0,.71.192c.308-.062.607-.357.763-1a.411.411,0,0,1,.129-.21ZM26.635,22.3a.421.421,0,1,1,.589.6,1.509,1.509,0,0,0-.446,1.031,1.665,1.665,0,0,0,.375,1.116.424.424,0,0,1-.656.531,2.5,2.5,0,0,1-.562-1.683,2.353,2.353,0,0,1,.71-1.6Zm-2.616,7.83c-.312-.4-.612-.812-.933-1.259a9.088,9.088,0,0,1-.853-1.611A9.62,9.62,0,0,1,21.7,25.42a8.142,8.142,0,0,1-.112-1.9,8.374,8.374,0,0,1,.371-1.937,9.776,9.776,0,0,1,.893-1.951l.045-.067a7.861,7.861,0,0,1,1.683-1.821,7.441,7.441,0,0,1,2.165-1.178h.04a7.812,7.812,0,0,1,1.839-.388,8.3,8.3,0,0,1,1.969.062,8.857,8.857,0,0,1,1.861.487,8.682,8.682,0,0,1,1.705.893,8.1,8.1,0,0,1,1.83,1.683,7.209,7.209,0,0,1,1.165,2.12,7.859,7.859,0,0,1,.228,4.464,8.776,8.776,0,0,1-.58,1.6,17.963,17.963,0,0,1-2.326,3.344c-.446.58-.933,1.156-1.308,1.687a.487.487,0,0,1-.513.192h0l-6.79.629a.487.487,0,0,1-.509-.357,10.267,10.267,0,0,0-.607-1.6A6.758,6.758,0,0,0,24,30.134ZM23.9,28.348a11.976,11.976,0,0,0,.893,1.2,7.763,7.763,0,0,1,.848,1.42,12.2,12.2,0,0,1,.531,1.366l6.352-.589c.371-.513.777-1.013,1.187-1.522a17.236,17.236,0,0,0,2.2-3.134,7.469,7.469,0,0,0,.509-1.433,6.651,6.651,0,0,0,.2-1.437,6.928,6.928,0,0,0-.089-1.3,7.405,7.405,0,0,0-.3-1.183,6.25,6.25,0,0,0-1-1.835,7.062,7.062,0,0,0-1.611-1.478,7.772,7.772,0,0,0-1.509-.777,7.919,7.919,0,0,0-1.661-.446,7.589,7.589,0,0,0-1.741-.054,7,7,0,0,0-1.607.335h-.04A6.388,6.388,0,0,0,25.166,18.5a6.906,6.906,0,0,0-1.478,1.6h0a8.312,8.312,0,0,0-.8,1.75,7.218,7.218,0,0,0-.321,1.705,6.986,6.986,0,0,0,.1,1.67,8.442,8.442,0,0,0,.478,1.647,8.071,8.071,0,0,0,.763,1.442Zm8.607,8.745A3.928,3.928,0,0,1,31,38.433a3.535,3.535,0,0,1-3.33,0,3.446,3.446,0,0,1-.96-.8l5.8-.545Zm.723-3.187v.509a5.147,5.147,0,0,1-.031.741l-.143.536-7.035.656-.107-.286-.21-1.129v-.321Zm-12.5-18.575a.79.79,0,0,1,.585-1.339.777.777,0,0,1,.554.241l1.219,1.25a.786.786,0,1,1-1.125,1.1ZM18.2,23.925a.8.8,0,0,1-.545-.246.8.8,0,0,1-.219-.567.781.781,0,0,1,.246-.554.8.8,0,0,1,.567-.219l1.732.036a.781.781,0,0,1,.554.246.8.8,0,0,1,.219.567h0v.027a.763.763,0,0,1-.241.513.786.786,0,0,1-.567.219h-.031l-1.71-.036ZM40.911,22.67h.027a.772.772,0,0,1,.536.205.79.79,0,0,1,.259.545v.036a.8.8,0,0,1-.205.536.772.772,0,0,1-.549.259l-1.728.089a.8.8,0,0,1-.571-.205.772.772,0,0,1-.259-.549.8.8,0,0,1,.205-.567.772.772,0,0,1,.549-.259c.576-.031,1.156-.067,1.736-.089ZM37.88,15.6a.808.808,0,0,1,.522-.308.8.8,0,0,1,.585.152h0a.786.786,0,0,1,.3.522.777.777,0,0,1-.147.585L38.1,17.938A.79.79,0,0,1,37,18.095a.781.781,0,0,1-.308-.522.763.763,0,0,1,.152-.585Z" transform="translate(1029.245 1978.462)" fill="#ed1c24"/>
    <path id="design-thinking-3" data-name="design-thinking" d="M30.01,12.461a.781.781,0,0,1,.277-.549.8.8,0,0,1,.567-.187h.054a.786.786,0,0,1,.683.835h0a.112.112,0,0,1,0,.04l-.147,1.7h0a.218.218,0,0,1,0,.054.786.786,0,0,1-.272.5.8.8,0,0,1-.567.187H30.55a.786.786,0,0,1-.679-.839c0-.013,0-.027.134-1.732ZM24.019,30.134c-.312-.4-.612-.812-.933-1.259a9.088,9.088,0,0,1-.853-1.611A9.62,9.62,0,0,1,21.7,25.42a8.142,8.142,0,0,1-.112-1.9,8.374,8.374,0,0,1,.371-1.937,9.776,9.776,0,0,1,.893-1.951,8,8,0,0,1,1.728-1.888,7.441,7.441,0,0,1,2.165-1.178h.04a7.812,7.812,0,0,1,1.839-.388,8.3,8.3,0,0,1,1.969.062,8.857,8.857,0,0,1,1.861.487,8.682,8.682,0,0,1,1.705.893,8.1,8.1,0,0,1,1.83,1.683,7.209,7.209,0,0,1,1.165,2.12,7.859,7.859,0,0,1,.228,4.464,8.776,8.776,0,0,1-.58,1.6,17.963,17.963,0,0,1-2.326,3.344c-.446.58-.933,1.156-1.308,1.687a.487.487,0,0,1-.513.192h0l-6.79.629a.487.487,0,0,1-.509-.357,10.267,10.267,0,0,0-.607-1.6A6.758,6.758,0,0,0,24,30.134ZM23.9,28.348a11.976,11.976,0,0,0,.893,1.2,7.763,7.763,0,0,1,.848,1.42,12.2,12.2,0,0,1,.531,1.366l6.352-.589c.371-.513.777-1.013,1.187-1.522a17.236,17.236,0,0,0,2.2-3.134,7.469,7.469,0,0,0,.509-1.433,6.651,6.651,0,0,0,.2-1.437,6.928,6.928,0,0,0-.089-1.3,7.405,7.405,0,0,0-.3-1.183,6.25,6.25,0,0,0-1-1.835,7.062,7.062,0,0,0-1.611-1.478,7.772,7.772,0,0,0-1.509-.777,7.919,7.919,0,0,0-1.661-.446,7.589,7.589,0,0,0-1.741-.054,7,7,0,0,0-1.607.335h-.04A6.388,6.388,0,0,0,25.166,18.5a6.906,6.906,0,0,0-1.478,1.6h0a8.312,8.312,0,0,0-.8,1.75,7.218,7.218,0,0,0-.321,1.705,6.986,6.986,0,0,0,.1,1.67,8.442,8.442,0,0,0,.478,1.647,8.071,8.071,0,0,0,.763,1.442Zm8.607,8.745A3.928,3.928,0,0,1,31,38.433a3.535,3.535,0,0,1-3.33,0,3.446,3.446,0,0,1-.96-.8l5.8-.545Zm.723-3.187v.509a5.147,5.147,0,0,1-.031.741l-.143.536-7.035.656-.107-.286-.21-1.129v-.321Zm-12.5-18.575a.79.79,0,0,1,.585-1.339.777.777,0,0,1,.554.241l1.219,1.25a.786.786,0,1,1-1.125,1.1ZM18.2,23.925a.8.8,0,0,1-.545-.246.8.8,0,0,1-.219-.567.781.781,0,0,1,.246-.554.8.8,0,0,1,.567-.219l1.732.036a.781.781,0,0,1,.554.246.8.8,0,0,1,.219.567h0v.027a.763.763,0,0,1-.241.513.786.786,0,0,1-.567.219h-.031l-1.71-.036ZM40.911,22.67h.027a.772.772,0,0,1,.536.205.79.79,0,0,1,.259.545v.036a.8.8,0,0,1-.205.536.772.772,0,0,1-.549.259l-1.728.089a.8.8,0,0,1-.571-.205.772.772,0,0,1-.259-.549.8.8,0,0,1,.205-.567.772.772,0,0,1,.549-.259c.576-.031,1.156-.067,1.736-.089ZM37.88,15.6a.808.808,0,0,1,.522-.308.8.8,0,0,1,.585.152h0a.786.786,0,0,1,.3.522.777.777,0,0,1-.147.585L38.1,17.938A.79.79,0,0,1,37,18.095a.781.781,0,0,1-.308-.522.763.763,0,0,1,.152-.585Z" transform="translate(1029.245 1978.462)" fill="#0a0a7a"/>
    <rect id="Rectangle_337" data-name="Rectangle 337" width="70" height="70" transform="translate(1024 1968.404)" fill="rgba(10,10,122,0)"/>
  </g>
</svg>
