<svg xmlns="http://www.w3.org/2000/svg" width="70" height="70" viewBox="0 0 70 70">
  <g id="integration_clr" transform="translate(-4 8.671)">
    <rect id="Rectangle_336" data-name="Rectangle 336" width="70" height="70" transform="translate(4 -8.671)" fill="rgba(10,10,122,0)"/>
    <path id="Path_11147" data-name="Path 11147" d="M52.171,35.408,49.1,38.481a2.091,2.091,0,0,1-2.942,0L43.68,36.005a16.76,16.76,0,0,1-4.094,1.539v3.208a2.087,2.087,0,0,1-2.08,2.08H33.161a2.087,2.087,0,0,1-2.08-2.08v-3.5A16.3,16.3,0,0,1,27.1,35.436l-2.271,2.271a2.091,2.091,0,0,1-2.942,0L20.5,36.322l.037-.042L26.629,29.3A12.158,12.158,0,0,0,48.04,21.42h0a12.159,12.159,0,0,0-20.768-8.589l-2.243-.084L19.355,7.693a2.553,2.553,0,0,1,.228-.275l3.073-3.073a2.091,2.091,0,0,1,2.942,0l2.476,2.476a16.389,16.389,0,0,1,4.094-1.539V2.075A2.1,2.1,0,0,1,34.257,0H38.6a2.087,2.087,0,0,1,2.08,2.08v3.5A16.478,16.478,0,0,1,44.659,7.4L46.93,5.124a2.091,2.091,0,0,1,2.942,0L52.945,8.2a2.091,2.091,0,0,1,0,2.942l-2.476,2.476a16.389,16.389,0,0,1,1.539,4.094h3.208a2.091,2.091,0,0,1,2.08,2.08v4.346a2.087,2.087,0,0,1-2.08,2.08h-3.5A16.3,16.3,0,0,1,49.9,30.2l2.271,2.271a2.087,2.087,0,0,1,0,2.942ZM35.917,17.466a3.949,3.949,0,1,1-3.949,3.949,3.948,3.948,0,0,1,3.949-3.949Zm-7.875,3.707L17.313,33.459,16.954,27.7C9.619,26.647,4,28.662,0,34.443.047,23.066,7.442,17.117,16.235,16.2l-.368-5.88,12.174,10.85Z" transform="translate(9 4.413)" fill="#0a0a7a" fill-rule="evenodd"/>
    <circle id="Ellipse_29" data-name="Ellipse 29" cx="5.5" cy="5.5" r="5.5" transform="translate(39 20.329)" fill="#ed1c24"/>
  </g>
</svg>
