<?xml version="1.0" encoding="utf-8"?><svg version="1.1" id="Layer_1" xmlns="http://www.w3.org/2000/svg" xmlns:xlink="http://www.w3.org/1999/xlink" x="0px" y="0px" viewBox="0 0 102.87 122.88" style="enable-background:new 0 0 102.87 122.88" xml:space="preserve"><style type="text/css">.st0{fill-rule:evenodd;clip-rule:evenodd;}</style><g><path class="st0" d="M15.97,89.55c7.34-5.26,19.1,0.39,23.74-8.77c1.23-2.43,1.49-5.75,0.39-8.39c-0.45-1.06-1.11-2.01-2-2.73 c-0.39-0.32-0.83-0.6-1.32-0.84c-6.04-3-12.33,1.2-15.67,6.26C18.04,79.74,16.7,85.56,15.97,89.55L15.97,89.55z M12.72,0h46.14 c3.5,0,6.71,1.44,9,3.72c2.32,2.32,3.73,5.49,3.73,9v10.45l-3.65,2.65v-6.09H3.61v83.53h64.32V70.87l3.65-3.46v42.75 c0,3.5-1.44,6.71-3.73,9c-2.32,2.32-5.49,3.72-9,3.72H12.72c-3.5,0-6.71-1.44-9-3.72c-2.32-2.32-3.72-5.49-3.72-9V12.72 c0-3.5,1.44-6.71,3.72-9C6.05,1.4,9.22,0,12.72,0L12.72,0z M35.77,107.24c2.88,0,5.24,2.32,5.24,5.24c0,2.88-2.32,5.24-5.24,5.24 c-2.88,0-5.24-2.32-5.24-5.24C30.54,109.6,32.86,107.24,35.77,107.24L35.77,107.24z M53.21,49.37c4.09,3.26,7.26,7.02,9.42,11.33 l37.99-36.02c1.98-1.88,3.11-3.47,1.45-6.36c-0.83-0.85-1.7-1.3-2.62-1.36c-0.92-0.06-1.88,0.27-2.89,1L53.21,49.37L53.21,49.37z M39.34,65.47c1.77,0.95,4.2,3.29,4.78,5.85l16.47-9.04c-2.38-4.73-5.4-8.78-9.56-11.66C46.7,56.44,44.26,59.95,39.34,65.47 L39.34,65.47z"/></g></svg>