<svg xmlns="http://www.w3.org/2000/svg" width="70" height="70" viewBox="0 0 70 70">
  <g id="rails_crl" transform="translate(-1048 -2002)">
    <rect id="Rectangle_335" data-name="Rectangle 335" width="70" height="70" transform="translate(1048 2002)" fill="rgba(10,10,122,0)"/>
    <path id="rails_logo_icon_" d="M60.939,33.416V36.8h5.779A3.384,3.384,0,0,0,70,33.314V32a3.36,3.36,0,0,0-3.282-3.488H63.834V26.942h5.709v-3.42H64.061a3.468,3.468,0,0,0-3.3,3.545v1.186a3.4,3.4,0,0,0,3.3,3.488c3.978.022-.958,0,2.724,0v1.652Zm-30.987-.832s3.1-.284,3.1-4.514A4.363,4.363,0,0,0,29.3,23.432H22.543V36.8h3.4V33.574L28.88,36.8h5.015ZM28.641,29.85h-2.7V26.795h2.724a1.5,1.5,0,0,1,.764,1.516,1.55,1.55,0,0,1-.786,1.538Zm12.786-6.324H37.985a3.438,3.438,0,0,0-3.293,3.488V36.8h3.453V34.467h3.236V36.8H44.72v-9.79a3.346,3.346,0,0,0-3.293-3.488Zm-.046,7.144H38.12V27.434s0-.742,1.083-.742h1.186c.945,0,.969.742.969.742V30.67Zm4.912-7.144h3.591V36.8H46.293Zm8.628,9.847V23.526H51.354V36.8h8.4V33.373ZM1.243,36.8H15.2s-2.667-12.912,6.177-18.155c1.926-.991,8.057-4.707,18.109,3.168.309-.274.615-.5.615-.5s-9.2-9.733-19.431-8.65c-5.151.49-11.477,5.46-15.193,12.024A33.685,33.685,0,0,0,1.241,36.8Zm0,0H15.2s-2.667-12.912,6.177-18.155c1.926-.991,8.057-4.707,18.109,3.168.309-.274.615-.5.615-.5s-9.2-9.733-19.431-8.65c-5.151.49-11.477,5.46-15.193,12.024A33.685,33.685,0,0,0,1.241,36.8Zm0,0H15.2s-2.667-12.912,6.177-18.155c1.926-.991,8.057-4.707,18.109,3.168.309-.274.615-.5.615-.5s-9.2-9.733-19.431-8.65c-5.162.49-11.5,5.46-15.214,12.024A33.578,33.578,0,0,0,1.243,36.8Zm29.1-23.079.079-1.265a8.274,8.274,0,0,0-1.72-.65L28.63,13.04q.873.309,1.709.685ZM28.663,17.69,28.6,18.876a9.159,9.159,0,0,1,1.744.228l.079-1.162A12.193,12.193,0,0,0,28.663,17.69ZM22.12,11.843h.171l-.352-1.14a14.861,14.861,0,0,0-1.7.1l.341,1.116A13.93,13.93,0,0,1,22.12,11.843Zm.845,6.906.411,1.289a9.827,9.827,0,0,1,1.538-.65l-.387-1.243A10.433,10.433,0,0,0,22.965,18.749Zm-8.024-4.934-.8-1.3c-.444.252-.9.512-1.379.81l.821,1.311C14.039,14.34,14.484,14.053,14.941,13.815Zm3.624,8.433L19.42,23.6a10.125,10.125,0,0,1,1.037-1.333L19.659,21a11.219,11.219,0,0,0-1.094,1.254ZM16,28.289,17.438,29.5a16.008,16.008,0,0,1,.365-2.2l-1.265-1.072A18.64,18.64,0,0,0,16,28.289Zm-7.74-8.9L7,18.226c-.455.468-.9.934-1.3,1.4l1.357,1.243A16.666,16.666,0,0,1,8.263,19.39ZM2.917,27.764.888,26.979c-.341.81-.707,1.744-.888,2.256l2.028.786C2.267,29.381,2.632,28.458,2.917,27.764ZM15.74,33.053a22.538,22.538,0,0,0,.206,2.37l2.131.8c-.16-.729-.319-1.549-.433-2.44Z" transform="translate(1048 2013.297)" fill="#312450"/>
    <path id="rails_logo_icon_2" data-name="rails_logo_icon_" d="M30.339,13.723l.079-1.265a8.274,8.274,0,0,0-1.72-.65L28.63,13.04q.873.309,1.709.685ZM28.663,17.69,28.6,18.876a9.159,9.159,0,0,1,1.744.228l.079-1.162A12.193,12.193,0,0,0,28.663,17.69ZM22.12,11.843h.171l-.352-1.14a14.861,14.861,0,0,0-1.7.1l.341,1.116A13.93,13.93,0,0,1,22.12,11.843Zm.845,6.906.411,1.289a9.827,9.827,0,0,1,1.538-.65l-.387-1.243A10.433,10.433,0,0,0,22.965,18.749Zm-8.024-4.934-.8-1.3c-.444.252-.9.512-1.379.81l.821,1.311C14.039,14.34,14.484,14.053,14.941,13.815Zm3.624,8.433L19.42,23.6a10.125,10.125,0,0,1,1.037-1.333L19.659,21a11.219,11.219,0,0,0-1.094,1.254ZM16,28.289,17.438,29.5a16.008,16.008,0,0,1,.365-2.2l-1.265-1.072A18.64,18.64,0,0,0,16,28.289Zm-7.74-8.9L7,18.226c-.455.468-.9.934-1.3,1.4l1.357,1.243A16.666,16.666,0,0,1,8.263,19.39ZM2.917,27.764.888,26.979c-.341.81-.707,1.744-.888,2.256l2.028.786C2.267,29.381,2.632,28.458,2.917,27.764ZM15.74,33.053a22.538,22.538,0,0,0,.206,2.37l2.131.8c-.16-.729-.319-1.549-.433-2.44Z" transform="translate(1048 2013.297)" fill="#2e983e"/>
  </g>
</svg>
