<svg xmlns="http://www.w3.org/2000/svg" width="70" height="70" viewBox="0 0 70 70">
  <g id="saas_clr" transform="translate(-1048 -1902)">
    <rect id="Rectangle_334" data-name="Rectangle 334" width="70" height="70" transform="translate(1048 1902)" fill="rgba(10,10,122,0)"/>
    <path id="saas" d="M31.838,5.42a17.273,17.273,0,0,0-2.3.07,16.194,16.194,0,0,0-8.387,3.275,15.737,15.737,0,0,0-5.761,9.74l-.258,1.353-1.342.236a18.9,18.9,0,0,0-3.522.95,11.581,11.581,0,0,0-2.685,1.434,8.644,8.644,0,0,0-1.611,1.5,9.128,9.128,0,0,0-2.051,5.96,10.792,10.792,0,0,0,2.046,6.191,10.115,10.115,0,0,0,1.7,1.826,9.943,9.943,0,0,0,.924.7q0,.37,0,.757a8.784,8.784,0,0,0,.29,2.287,3.813,3.813,0,0,0,.107.408l.1.285a3.758,3.758,0,0,0-.2.752l-.5-.193A12.44,12.44,0,0,1,5.163,41,13.863,13.863,0,0,1,2.8,38.462,14.781,14.781,0,0,1,0,29.946a13.058,13.058,0,0,1,2.964-8.516,12.682,12.682,0,0,1,2.33-2.148,15.925,15.925,0,0,1,3.565-1.906,20.844,20.844,0,0,1,2.953-.918A19.41,19.41,0,0,1,18.748,5.64,20.156,20.156,0,0,1,29.175,1.564a21.407,21.407,0,0,1,5.187.145,5.557,5.557,0,0,0-.279,1.144c0,.14-.032.285-.043.424-.26.143-.05,1.034-.286,1.213l-.239,1.068-1.7-.14ZM42.329,40.937v3.522a1.229,1.229,0,0,0,.413.188l-.054,2.432a14.25,14.25,0,0,1-1.831.209,2.685,2.685,0,0,1-.907-.15,1.3,1.3,0,0,1-.537-.3l-.15-.14a5.2,5.2,0,0,1-2.583.6,3.345,3.345,0,0,1-2.287-.7,2.894,2.894,0,0,1-.768-2.234,2.221,2.221,0,0,1,.87-2.067,6.1,6.1,0,0,1,2.76-.591l1.235-.054v-.435c0-.215-.242-.328-.719-.328-1.036,0-2.089.081-3.12.172l-.564.054L34,38.521a16.108,16.108,0,0,1,4.118-.6,6.615,6.615,0,0,1,3.034.58,2.517,2.517,0,0,1,1.165,2.438ZM21.2,38.886c-1.611-.172-2.787-.258-3.517-.258a7.291,7.291,0,0,0-1.278.059.247.247,0,0,0-.177.252.322.322,0,0,0,.2.29,8.59,8.59,0,0,0,1.294.344,18.036,18.036,0,0,1,1.783.472,4.2,4.2,0,0,1,1.251.65,2.008,2.008,0,0,1,.719,1.026,6.1,6.1,0,0,1,.177,1.611,3.647,3.647,0,0,1-1.133,3.039,5.4,5.4,0,0,1-3.409.907,18.372,18.372,0,0,1-2.3-.156c-.805-.1-1.428-.2-1.863-.306L12.3,46.7l.172-3.034a32.022,32.022,0,0,0,4.3.376c.6,0,.891-.129.891-.4,0-.113-.07-.193-.2-.247a7.619,7.619,0,0,0-1.117-.215,6.446,6.446,0,0,1-3.264-1.176,3.4,3.4,0,0,1-.864-2.609,3.8,3.8,0,0,1,1.111-3.173,5.64,5.64,0,0,1,3.431-.859,26.915,26.915,0,0,1,3.823.328l.719.118-.1,3.087Zm31.958,0q-2.416-.236-3.517-.236a7.689,7.689,0,0,0-1.273.059.247.247,0,0,0-.183.252.317.317,0,0,0,.209.29,8.967,8.967,0,0,0,1.289.344,16.79,16.79,0,0,1,1.788.472,4.167,4.167,0,0,1,1.246.65,1.987,1.987,0,0,1,.741,1.026,6.1,6.1,0,0,1,.177,1.611A3.656,3.656,0,0,1,52.5,46.392a5.424,5.424,0,0,1-3.415.907,18.374,18.374,0,0,1-2.3-.156c-.805-.1-1.439-.209-1.858-.306l-.671-.134.172-3.034a32.092,32.092,0,0,0,4.3.376c.6,0,.891-.129.891-.4a.263.263,0,0,0-.2-.247,9.665,9.665,0,0,0-1.111-.215,6.342,6.342,0,0,1-3.27-1.176,3.376,3.376,0,0,1-.864-2.609,3.8,3.8,0,0,1,1.117-3.173,5.648,5.648,0,0,1,3.426-.859,23.42,23.42,0,0,1,3.823.328l.719.118ZM26.8,45.125a1.911,1.911,0,0,0,1.235-.537v-1.31l-1.106.07a.827.827,0,0,0-.848.924c0,.569.242.854.719.854Zm10.577,0a1.911,1.911,0,0,0,1.235-.537v-1.31l-1.106.07a.827.827,0,0,0-.843.924c0,.569.236.854.714.854Zm-5.627-4.188v3.522a1.23,1.23,0,0,0,.413.188l-.048,2.432a14.4,14.4,0,0,1-1.836.209,2.685,2.685,0,0,1-.907-.15,1.342,1.342,0,0,1-.537-.3l-.15-.14a5.2,5.2,0,0,1-2.577.6,3.334,3.334,0,0,1-2.293-.7,2.878,2.878,0,0,1-.768-2.234,2.209,2.209,0,0,1,.87-2.067,6.035,6.035,0,0,1,2.765-.591l1.23-.054v-.435c0-.215-.236-.328-.719-.328-1.042,0-2.089.081-3.12.172l-.564.054-.086-2.6a16.108,16.108,0,0,1,4.129-.6,6.583,6.583,0,0,1,3.05.58,2.524,2.524,0,0,1,1.16,2.438ZM54.63,3.7l1.348,1.777a1.074,1.074,0,0,1-.2,1.493L54.34,8.04a8.339,8.339,0,0,1,.5,2.191l1.611.22a1.074,1.074,0,0,1,.913,1.2l-.3,2.217a1.074,1.074,0,0,1-1.2.913l-1.783-.247a8.231,8.231,0,0,1-1.2,1.9l1,1.315a1.074,1.074,0,0,1-.209,1.5L51.9,20.609a1.074,1.074,0,0,1-1.493-.215l-1.074-1.434a8.161,8.161,0,0,1-2.2.494l-.22,1.611a1.074,1.074,0,0,1-1.224.94l-2.207-.3a1.074,1.074,0,0,1-.913-1.208l.247-1.777a8.7,8.7,0,0,1-1.9-1.2l-1.31,1a1.074,1.074,0,0,1-1.493-.2l-1.348-1.777a1.074,1.074,0,0,1,.193-1.514L38.4,13.951a8.167,8.167,0,0,1-.494-2.191l-1.611-.226a1.074,1.074,0,0,1-.913-1.2l.3-2.212a1.074,1.074,0,0,1,1.2-.913l1.772.247a8.661,8.661,0,0,1,1.2-1.9c-1.36-1.78-1.27-2.444-.805-2.8l1.777-1.348a1.074,1.074,0,0,1,1.5.193L43.4,3.03a8.548,8.548,0,0,1,2.191-.494L45.819.925a1.074,1.074,0,0,1,1.213-.934l2.212.3a1.074,1.074,0,0,1,.913,1.2l-.226,1.793a8.5,8.5,0,0,1,1.9,1.2L53.154,3.5a1.074,1.074,0,0,1,1.5.2ZM46.963,6.66a4.387,4.387,0,1,1-3.252.853,4.392,4.392,0,0,1,3.252-.853Zm14.245,9.369c.2.193.4.392.6.6a15.673,15.673,0,0,1,1.611,2.094,17.718,17.718,0,0,1,2.561,9.627,15.8,15.8,0,0,1-2.819,9.24,14.739,14.739,0,0,1-4.634,3.984c-.413.231-.848.451-1.294.655v-.177a7.651,7.651,0,0,0-.263-1.353h0a5.546,5.546,0,0,0-.3-.789A3.646,3.646,0,0,0,56.815,39l.032-1a10.55,10.55,0,0,0,3.189-2.76,11.823,11.823,0,0,0,2.03-6.91,13.681,13.681,0,0,0-1.928-7.447,11.141,11.141,0,0,0-1.251-1.557l-.242-.247a1.244,1.244,0,0,1,.032-.344,5.267,5.267,0,0,0,.752-.483,5.605,5.605,0,0,0,1.777-2.217Z" transform="translate(1050.011 1913.353)" fill="#0a0a7a" fill-rule="evenodd"/>
    <path id="saas-2" data-name="saas" d="M31.5,17.463a.714.714,0,0,0-1.015.177l-.639.907a5.369,5.369,0,0,0-.719-.242,7.157,7.157,0,0,0-.752-.15l-.2-1.192a.719.719,0,0,0-.843-.591l-1.493.263a.693.693,0,0,0-.462.3.671.671,0,0,0-.123.537l.188,1.074a5.09,5.09,0,0,0-.682.349,5.691,5.691,0,0,0-.6.43l-1-.7a.666.666,0,0,0-.537-.129.725.725,0,0,0-.472.306l-.859,1.23a.714.714,0,0,0,.188,1.031l.907.639a4.719,4.719,0,0,0-.242.719,7.179,7.179,0,0,0-.156.752l-1.187.2a.719.719,0,0,0-.591.843l.263,1.493a.693.693,0,0,0,.3.462.671.671,0,0,0,.537.123l1.074-.188a5.09,5.09,0,0,0,.349.682,6.442,6.442,0,0,0,.424.628l-.7.993a.666.666,0,0,0-.129.537.687.687,0,0,0,.306.472l1.23.875a.746.746,0,0,0,.537.113.714.714,0,0,0,.472-.29l.639-.924a4.72,4.72,0,0,0,.719.242,7.378,7.378,0,0,0,.746.156l.209,1.187a.719.719,0,0,0,.843.591l1.5-.268a.725.725,0,0,0,.591-.838l-.188-1.074a5.09,5.09,0,0,0,.671-.365,6.444,6.444,0,0,0,.628-.424l.983.7a.7.7,0,0,0,1-.177l.875-1.23a.746.746,0,0,0,.113-.537.757.757,0,0,0-.29-.472l-.924-.639a5.37,5.37,0,0,0,.242-.719,7.344,7.344,0,0,0,.15-.746l1.192-.209a.719.719,0,0,0,.591-.843L34.9,22.032a.693.693,0,0,0-.3-.467.671.671,0,0,0-.537-.123l-1.074.188a6.217,6.217,0,0,0-.36-.7,5.208,5.208,0,0,0-.419-.6l.693-1.015a.666.666,0,0,0,.129-.537.752.752,0,0,0-.306-.472l-1.23-.859Zm-4.2,4.231a2.115,2.115,0,0,1,.881,0,2.185,2.185,0,0,1,1.353.977,2.213,2.213,0,0,1-1.477,3.377,2.212,2.212,0,0,1-1.573-4.043,2.1,2.1,0,0,1,.816-.317Z" transform="translate(1050.011 1913.353)" fill="#ed1c24" fill-rule="evenodd"/>
  </g>
</svg>
