<svg id="Layer_1" data-name="Layer 1" xmlns="http://www.w3.org/2000/svg" viewBox="0 0 122.88 88.12"><defs><style>.cls-1{fill-rule:evenodd;}</style></defs><title>saas</title><path class="cls-1" d="M59.3,10.11a32.17,32.17,0,0,0-4.28.13,30.16,30.16,0,0,0-15.62,6.1A29.31,29.31,0,0,0,28.67,34.48L28.19,37l-2.5.44a35.19,35.19,0,0,0-6.56,1.77,21.57,21.57,0,0,0-5,2.67,16.1,16.1,0,0,0-3,2.79,17,17,0,0,0-3.82,11.1A20.1,20.1,0,0,0,11.12,67.3a18.84,18.84,0,0,0,3.16,3.4A18.52,18.52,0,0,0,16,72c0,.46,0,.93,0,1.41a16.36,16.36,0,0,0,.54,4.26,7.1,7.1,0,0,0,.2.76l.19.53a7,7,0,0,0-.37,1.4L15.62,80a23.17,23.17,0,0,1-6-3.63,25.82,25.82,0,0,1-4.4-4.72A27.53,27.53,0,0,1,0,55.79,24.32,24.32,0,0,1,5.52,39.93a23.62,23.62,0,0,1,4.34-4,29.66,29.66,0,0,1,6.64-3.55A38.82,38.82,0,0,1,22,30.67,36.15,36.15,0,0,1,34.92,10.52,37.54,37.54,0,0,1,54.34,2.93,39.87,39.87,0,0,1,64,3.2a10.35,10.35,0,0,0-.52,2.13c0,.26-.06.53-.08.79a11.37,11.37,0,0,0-1.39.9,10.59,10.59,0,0,0-2.75,3.09ZM78.84,76.26v6.56a2.29,2.29,0,0,0,.77.35l-.1,4.53a26.54,26.54,0,0,1-3.41.39,5,5,0,0,1-1.69-.28,2.43,2.43,0,0,1-1-.55L73.13,87a9.69,9.69,0,0,1-4.81,1.12,6.23,6.23,0,0,1-4.26-1.3,5.39,5.39,0,0,1-1.43-4.16c0-1.92.55-3.21,1.62-3.85a11.36,11.36,0,0,1,5.14-1.1l2.3-.1V76.8c0-.4-.45-.61-1.34-.61-1.93,0-3.89.15-5.81.32l-1.05.1-.16-4.85A30,30,0,0,1,71,70.64a12.32,12.32,0,0,1,5.65,1.08c1.44.76,2.17,2.31,2.17,4.54ZM39.48,72.44c-3-.32-5.19-.48-6.55-.48a13.58,13.58,0,0,0-2.38.11.46.46,0,0,0-.33.47.6.6,0,0,0,.38.54,16,16,0,0,0,2.41.64,33.59,33.59,0,0,1,3.32.88,7.82,7.82,0,0,1,2.33,1.21A3.74,3.74,0,0,1,40,77.72a11.36,11.36,0,0,1,.33,3q0,4-2.11,5.66c-1.4,1.12-3.52,1.69-6.35,1.69a34.22,34.22,0,0,1-4.29-.29c-1.5-.19-2.66-.38-3.47-.57L22.91,87l.32-5.65a59.64,59.64,0,0,0,8,.7c1.11,0,1.66-.24,1.66-.74,0-.21-.13-.36-.38-.46a14.19,14.19,0,0,0-2.08-.4c-3-.47-5-1.2-6.08-2.19s-1.61-2.61-1.61-4.86q0-4.32,2.07-5.91c1.39-1.06,3.52-1.6,6.39-1.6a50.13,50.13,0,0,1,7.12.61l1.34.22-.19,5.75Zm59.52,0Q94.5,72,92.45,72a14.32,14.32,0,0,0-2.37.11.46.46,0,0,0-.34.47.59.59,0,0,0,.39.54,16.7,16.7,0,0,0,2.4.64,31.27,31.27,0,0,1,3.33.88,7.76,7.76,0,0,1,2.32,1.21,3.7,3.7,0,0,1,1.38,1.91,11.36,11.36,0,0,1,.33,3q0,4-2.1,5.66c-1.41,1.12-3.53,1.69-6.36,1.69a34.22,34.22,0,0,1-4.29-.29c-1.5-.19-2.68-.39-3.46-.57L82.43,87l.32-5.65a59.77,59.77,0,0,0,8,.7c1.11,0,1.66-.24,1.66-.74a.49.49,0,0,0-.38-.46,18,18,0,0,0-2.07-.4c-3-.44-5-1.2-6.09-2.19s-1.61-2.61-1.61-4.86c0-2.88.7-4.86,2.08-5.91s3.51-1.6,6.38-1.6a43.62,43.62,0,0,1,7.12.61l1.34.22L99,72.44ZM49.92,84.06a3.56,3.56,0,0,0,2.3-1V80.62l-2.06.13a1.54,1.54,0,0,0-1.58,1.72c0,1.06.45,1.59,1.34,1.59Zm19.7,0a3.56,3.56,0,0,0,2.3-1V80.62l-2.06.13a1.54,1.54,0,0,0-1.57,1.72c0,1.06.44,1.59,1.33,1.59Zm-10.48-7.8v6.56a2.29,2.29,0,0,0,.77.35l-.09,4.53a26.82,26.82,0,0,1-3.42.39,5,5,0,0,1-1.69-.28,2.5,2.5,0,0,1-1-.55L53.43,87a9.68,9.68,0,0,1-4.8,1.12,6.21,6.21,0,0,1-4.27-1.3,5.36,5.36,0,0,1-1.43-4.16c0-1.92.54-3.21,1.62-3.85a11.24,11.24,0,0,1,5.15-1.1l2.29-.1V76.8c0-.4-.44-.61-1.34-.61-1.94,0-3.89.15-5.81.32l-1.05.1-.16-4.85a30,30,0,0,1,7.69-1.12A12.26,12.26,0,0,1,57,71.72c1.43.77,2.16,2.3,2.16,4.54ZM101.75,6.9l2.51,3.31a2,2,0,0,1-.38,2.78l-2.67,2a15.53,15.53,0,0,1,.93,4.08l3,.41a2,2,0,0,1,1.7,2.24l-.56,4.13a2,2,0,0,1-2.24,1.7l-3.32-.46a15.33,15.33,0,0,1-2.24,3.53l1.86,2.45a2,2,0,0,1-.39,2.79L96.67,38.4A2,2,0,0,1,93.89,38l-2-2.67a15.2,15.2,0,0,1-4.09.92l-.41,3A2,2,0,0,1,85.11,41L81,40.45a2,2,0,0,1-1.7-2.25l.46-3.31a16.2,16.2,0,0,1-3.54-2.24l-2.44,1.86A2,2,0,0,1,71,34.13l-2.51-3.31A2,2,0,0,1,68.85,28l2.67-2a15.21,15.21,0,0,1-.92-4.08l-3-.42a2,2,0,0,1-1.7-2.24l.56-4.12a2,2,0,0,1,2.24-1.7L72,13.9a16.13,16.13,0,0,1,2.24-3.53L72.36,7.93a2,2,0,0,1,.38-2.78l3.31-2.51A2,2,0,0,1,78.84,3l2,2.66a15.92,15.92,0,0,1,4.08-.92l.42-3A2,2,0,0,1,87.6,0l4.12.56a2,2,0,0,1,1.7,2.24L93,6.14a15.83,15.83,0,0,1,3.54,2.24L99,6.53a2,2,0,0,1,2.8.37ZM58.67,32.54a1.33,1.33,0,0,0-1.89.33l-1.19,1.69a10,10,0,0,0-1.34-.45,13.33,13.33,0,0,0-1.4-.28l-.38-2.22a1.34,1.34,0,0,0-1.57-1.1L48.12,31a1.29,1.29,0,0,0-.86.55,1.25,1.25,0,0,0-.23,1l.35,2a9.48,9.48,0,0,0-1.27.65A10.6,10.6,0,0,0,45,36l-1.87-1.3a1.24,1.24,0,0,0-1-.24,1.35,1.35,0,0,0-.88.57l-1.6,2.29A1.33,1.33,0,0,0,40,39.24l1.69,1.19a8.79,8.79,0,0,0-.45,1.34,13.37,13.37,0,0,0-.29,1.4l-2.21.38a1.34,1.34,0,0,0-1.1,1.57l.49,2.78a1.29,1.29,0,0,0,.55.86,1.25,1.25,0,0,0,1,.23l2-.35a9.48,9.48,0,0,0,.65,1.27,12,12,0,0,0,.79,1.17l-1.3,1.85a1.24,1.24,0,0,0-.24,1,1.28,1.28,0,0,0,.57.88l2.29,1.63a1.39,1.39,0,0,0,1,.21,1.33,1.33,0,0,0,.88-.54l1.19-1.72a8.79,8.79,0,0,0,1.34.45,13.74,13.74,0,0,0,1.39.29l.39,2.21a1.34,1.34,0,0,0,1.57,1.1L55,57.94a1.35,1.35,0,0,0,1.1-1.56l-.35-2A9.48,9.48,0,0,0,57,53.7a12,12,0,0,0,1.17-.79L60,54.21a1.27,1.27,0,0,0,1,.24,1.28,1.28,0,0,0,.87-.57l1.63-2.29a1.39,1.39,0,0,0,.21-1,1.41,1.41,0,0,0-.54-.88l-1.72-1.19a10,10,0,0,0,.45-1.34,13.68,13.68,0,0,0,.28-1.39l2.22-.39a1.34,1.34,0,0,0,1.1-1.57L65,41.05a1.29,1.29,0,0,0-.55-.87,1.25,1.25,0,0,0-1-.23l-2,.35A11.58,11.58,0,0,0,60.78,39,9.7,9.7,0,0,0,60,37.89L61.29,36a1.24,1.24,0,0,0,.24-1,1.4,1.4,0,0,0-.57-.88l-2.29-1.6Zm-7.83,7.88a3.94,3.94,0,0,1,1.64,0A4.07,4.07,0,0,1,55,42.24a4.17,4.17,0,0,1,.55,3.16,4.14,4.14,0,0,1-3.3,3.13,4.06,4.06,0,0,1-4.17-1.83,4.1,4.1,0,0,1-.6-1.52A4.06,4.06,0,0,1,49.32,41a3.92,3.92,0,0,1,1.52-.59Zm36.63-28a8.18,8.18,0,1,1-9.21,7,8.17,8.17,0,0,1,9.21-7ZM114,29.87c.38.36.74.73,1.11,1.12a29.19,29.19,0,0,1,3,3.9,33,33,0,0,1,4.77,17.93c-.07,6.31-1.77,12.59-5.25,17.21A27.45,27.45,0,0,1,109,77.45c-.77.43-1.58.84-2.41,1.22l0-.33a14.25,14.25,0,0,0-.49-2.52h0a10.33,10.33,0,0,0-.55-1.47,6.79,6.79,0,0,0,.27-1.7l.06-1.87a19.65,19.65,0,0,0,5.94-5.14c2.5-3.33,3.73-8,3.78-12.87a25.48,25.48,0,0,0-3.59-13.87A20.75,20.75,0,0,0,109.68,36l-.45-.46c0-.21,0-.43.06-.64a9.81,9.81,0,0,0,1.4-.9A10.44,10.44,0,0,0,114,29.87Z"/></svg>