<!-- Generated by IcoMoon.io -->
<svg version="1.1" xmlns="http://www.w3.org/2000/svg" width="432" height="448" viewBox="0 0 432 448">
	<path fill="#ffffff" d="M427.636 224c0 9.777-3.738 19.266-10.639 26.167l-187.194 187.194c-6.901 6.614-16.39 10.639-26.167 10.639s-18.978-4.026-25.879-10.639l-21.566-21.566c-6.901-6.901-10.927-16.39-10.927-26.167s4.026-19.266 10.927-26.167l84.252-84.252h-202.434c-20.703 0-33.643-17.253-33.643-36.806v-36.806c0-19.553 12.94-36.806 33.643-36.806h202.434l-84.252-84.539c-6.901-6.614-10.927-16.103-10.927-25.879s4.026-19.266 10.927-25.879l21.566-21.566c6.901-6.901 16.103-10.927 25.879-10.927s19.266 4.026 26.167 10.927l187.194 187.194c6.901 6.614 10.639 16.103 10.639 25.879z"></path>
</svg>
