<svg xmlns="http://www.w3.org/2000/svg" width="50" height="50" viewBox="0 0 50 50">
  <g id="Our_Values" data-name="Our Values" transform="translate(-10.424 -1000.33)">
    <g id="g3417" transform="translate(10.424 1000.33)">
      <path id="path8224" d="M11.56,1033.36a.625.625,0,0,0,0,1.249H60.335a.625.625,0,0,0,0-1.249Z" transform="translate(-10.947 -992.104)" fill="#2b4255"/>
      <path id="path8230" d="M21.62,1035.43a.625.625,0,0,0,0,1.249H45.795a.625.625,0,0,0,0-1.249Z" transform="translate(-8.684 -991.588)" fill="#f05542" fill-rule="evenodd"/>
      <path id="path8232" d="M23.62,1037.36a.625.625,0,0,0,0,1.249h6.446a.625.625,0,0,0,0-1.249Z" transform="translate(-8.234 -991.107)" fill="#f05542" fill-rule="evenodd"/>
      <path id="path8238" d="M22.447,1006.87a.385.385,0,0,0-.377.4c0,.271-.113.393-.377.393a.39.39,0,0,0,0,.781c.254,0,.377.071.377.377a.383.383,0,1,0,.766,0c0-.277.127-.377.378-.377a.39.39,0,0,0,0-.781c-.341,0-.378-.2-.378-.393A.387.387,0,0,0,22.447,1006.87Z" transform="translate(-8.617 -998.701)" fill="#2b4255" fill-rule="evenodd"/>
      <path id="path8240" d="M12.973,1013.32a.528.528,0,0,0-.517.544c0,.372-.156.54-.517.54a.536.536,0,0,0,0,1.072c.348,0,.517.1.517.517a.526.526,0,1,0,1.051,0c0-.38.174-.517.519-.517a.536.536,0,0,0,0-1.072c-.469,0-.519-.273-.519-.54A.531.531,0,0,0,12.973,1013.32Z" transform="translate(-10.844 -997.095)" fill="#2b4255" fill-rule="evenodd"/>
      <path id="path8242" d="M15.135,1020.3a.29.29,0,0,0-.284.3c0,.2-.086.3-.284.3a.294.294,0,0,0,0,.588c.191,0,.284.054.284.284a.289.289,0,1,0,.577,0c0-.209.1-.284.285-.284a.294.294,0,0,0,0-.588c-.257,0-.285-.15-.285-.3A.291.291,0,0,0,15.135,1020.3Z" transform="translate(-10.199 -995.356)" fill="#f05542" fill-rule="evenodd"/>
      <path id="path8244" d="M12.645,1002.01a.385.385,0,0,0-.377.4c0,.271-.113.394-.377.394a.39.39,0,0,0,0,.781c.254,0,.377.071.377.377a.383.383,0,1,0,.766,0c0-.277.127-.377.378-.377a.39.39,0,0,0,0-.781c-.341,0-.378-.2-.378-.394A.387.387,0,0,0,12.645,1002.01Z" transform="translate(-10.822 -999.912)" fill="#f05542" fill-rule="evenodd"/>
      <path id="path8246" d="M39.9,1000.65a.29.29,0,0,0-.284.3c0,.2-.086.3-.284.3a.294.294,0,0,0,0,.588c.191,0,.284.054.284.284a.289.289,0,1,0,.577,0c0-.209.1-.284.285-.284a.294.294,0,0,0,0-.588c-.257,0-.285-.15-.285-.3A.291.291,0,0,0,39.9,1000.65Z" transform="translate(-4.628 -1000.25)" fill="#f05542" fill-rule="evenodd"/>
      <path id="path8248" d="M32.458,1004.36a.385.385,0,0,0-.377.4c0,.271-.113.393-.377.393a.391.391,0,0,0,0,.781c.254,0,.377.071.377.376a.383.383,0,1,0,.766,0c0-.277.127-.376.378-.376a.391.391,0,0,0,0-.781c-.341,0-.378-.2-.378-.393A.387.387,0,0,0,32.458,1004.36Z" transform="translate(-6.364 -999.326)" fill="#2b4255" fill-rule="evenodd"/>
      <path id="path8250" d="M45.4,1012.67a.29.29,0,0,0-.284.3c0,.2-.086.3-.284.3a.294.294,0,0,0,0,.588c.191,0,.284.054.284.284a.289.289,0,1,0,.577,0c0-.209.1-.284.285-.284a.294.294,0,0,0,0-.588c-.257,0-.285-.15-.285-.3A.292.292,0,0,0,45.4,1012.67Z" transform="translate(-3.39 -997.257)" fill="#f05542" fill-rule="evenodd"/>
      <path id="path8252" d="M47.676,1023.47a.528.528,0,0,0-.517.544c0,.371-.156.54-.517.54a.536.536,0,0,0,0,1.072c.348,0,.517.1.517.517a.526.526,0,1,0,1.051,0c0-.38.174-.517.519-.517a.536.536,0,0,0,0-1.072c-.469,0-.519-.273-.519-.54A.531.531,0,0,0,47.676,1023.47Z" transform="translate(-3.036 -994.567)" fill="#f05542" fill-rule="evenodd"/>
      <path id="path8254" d="M47.77,1002.64a.385.385,0,0,0-.377.4c0,.271-.113.393-.377.393a.39.39,0,0,0,0,.781c.254,0,.377.071.377.377a.383.383,0,1,0,.766,0c0-.277.127-.377.378-.377a.39.39,0,0,0,0-.781c-.341,0-.378-.2-.378-.393A.387.387,0,0,0,47.77,1002.64Z" transform="translate(-2.919 -999.755)" fill="#2b4255" fill-rule="evenodd"/>
      <path id="path8256" d="M24,1000.33a.3.3,0,0,0-.291.306c0,.209-.088.3-.291.3a.3.3,0,0,0,0,.6c.2,0,.291.055.291.291a.3.3,0,1,0,.592,0c0-.214.1-.291.292-.291a.3.3,0,0,0,0-.6c-.264,0-.292-.154-.292-.3a.3.3,0,0,0-.3-.306Z" transform="translate(-8.21 -1000.33)" fill="#f05542" fill-rule="evenodd"/>
      <path id="path17091-9" d="M19.136,1018.47a.625.625,0,0,0,0,1.249h4.027a.625.625,0,0,0,0-1.249Zm6.132,0a.625.625,0,0,0,0,1.249H48.442a.625.625,0,0,0,0-1.249H25.268Z" transform="translate(-9.243 -995.812)" fill="#2b4255"/>
      <path id="path17097-0" d="M23.155,1012.48a.611.611,0,0,0-.54.335.635.635,0,0,0,.038.643l4.9,7.494a.605.605,0,0,0,.849.173.632.632,0,0,0,.17-.866l-4.9-7.494A.61.61,0,0,0,23.155,1012.48Z" transform="translate(-8.338 -997.304)" fill="#2b4255"/>
      <path id="path17099-3" d="M40.028,1012.46a.611.611,0,0,0-.5.286l-4.9,7.494a.632.632,0,0,0,.17.866.606.606,0,0,0,.849-.173l4.9-7.495a.635.635,0,0,0,.033-.652A.611.611,0,0,0,40.028,1012.46Z" transform="translate(-5.642 -997.309)" fill="#2b4255"/>
      <path id="path17101-6" d="M32.034,1012.45a.61.61,0,0,0-.5.285l-4.9,7.494a.632.632,0,0,0,.17.866.605.605,0,0,0,.849-.173l4.9-7.495a.635.635,0,0,0,.033-.652.611.611,0,0,0-.555-.326Z" transform="translate(-7.441 -997.311)" fill="#2b4255"/>
      <path id="path17103-9" d="M31.141,1012.48a.611.611,0,0,0-.54.335.635.635,0,0,0,.038.643l4.9,7.494a.605.605,0,0,0,.849.173.632.632,0,0,0,.17-.866l-4.9-7.494A.61.61,0,0,0,31.141,1012.48Z" transform="translate(-6.541 -997.304)" fill="#2b4255"/>
      <path id="path17105-3" d="M27.72,1018.83l-1.177.342,4.9,17.487,1.177-.342-4.9-17.487Z" transform="translate(-7.438 -995.722)" fill="#2b4255" fill-rule="evenodd"/>
      <path id="path17107-5" d="M35.443,1018.83l-4.9,17.487,1.177.342,4.9-17.487-1.177-.342Z" transform="translate(-6.538 -995.722)" fill="#2b4255" fill-rule="evenodd"/>
      <path id="path8181-7" d="M24.036,1012.47a.609.609,0,0,0-.51.278l-4.9,7.494a.634.634,0,0,0,.045.754l4.431,5.265a.6.6,0,0,0,.864.068.633.633,0,0,0,.067-.881l-4.13-4.906,4.46-6.823H43.349l4.46,6.823-13.953,16.572-6.493-7.711a.607.607,0,0,0-.588-.235.617.617,0,0,0-.479.419.633.633,0,0,0,.138.628l6.958,8.268a.6.6,0,0,0,.931,0L49.041,1021a.634.634,0,0,0,.045-.754l-4.9-7.494a.61.61,0,0,0-.51-.278H24.036Zm.809,14.44a.612.612,0,0,0-.548.374.634.634,0,0,0,.1.665l.541.642a.6.6,0,0,0,.864.068.633.633,0,0,0,.067-.88l-.541-.644A.607.607,0,0,0,24.845,1026.91Z" transform="translate(-9.243 -997.306)" fill="#2b4255"/>
      <path id="path8252-5" d="M27.362,1017.65a.528.528,0,0,0-.517.544c0,.372-.156.54-.517.54a.536.536,0,0,0,0,1.072c.348,0,.517.1.517.517a.526.526,0,1,0,1.051,0c0-.38.174-.517.519-.517a.536.536,0,0,0,0-1.072c-.469,0-.519-.273-.519-.54A.533.533,0,0,0,27.362,1017.65Z" transform="translate(-7.607 -996.016)" fill="#f05542" fill-rule="evenodd"/>
      <path id="path8232-8" d="M31.62,1037.36a.625.625,0,0,0,0,1.249h6.446a.625.625,0,0,0,0-1.249Z" transform="translate(-6.434 -991.107)" fill="#f05542" fill-rule="evenodd"/>
      <path id="path8232-9" d="M27.62,1039.36a.625.625,0,0,0,0,1.249h6.446a.625.625,0,0,0,0-1.249Z" transform="translate(-7.334 -990.609)" fill="#f05542" fill-rule="evenodd"/>
    </g>
  </g>
</svg>
