<svg xmlns="http://www.w3.org/2000/svg" width="720" height="200" viewBox="0 0 720 200">
  <g id="Group_109" data-name="Group 109" transform="translate(-147 -109)">
    <rect id="Rectangle_366" data-name="Rectangle 366" width="720" height="200" transform="translate(147 109)" fill="rgba(102,38,255,0)"/>
    <path id="Path_583" data-name="Path 583" d="M-339.695,0V-110.236h35.718q20.3,0,26.469,1.654a28.9,28.9,0,0,1,15.866,10.791q6.392,8.309,6.392,21.468,0,10.151-3.685,17.069A30.226,30.226,0,0,1-268.3-48.388a32.26,32.26,0,0,1-11.542,5.226q-7.971,1.579-23.085,1.579h-14.513V0Zm22.258-91.588v31.281h12.182q13.159,0,17.6-1.729A14.614,14.614,0,0,0-280.7-67.45a14.819,14.819,0,0,0,2.519-8.572,14.24,14.24,0,0,0-3.534-9.926,15.391,15.391,0,0,0-8.948-4.888q-3.985-.752-16.017-.752ZM-237.128,0V-110.236H-216V0Zm58.577-55.494-19.175-3.459q3.233-11.58,11.129-17.145t23.461-5.564q14.137,0,21.055,3.346t9.738,8.5q2.82,5.151,2.82,18.912l-.226,24.664q0,10.527,1.015,15.528A45.323,45.323,0,0,0-124.937,0h-20.9q-.827-2.105-2.03-6.241-.526-1.88-.752-2.481a38.094,38.094,0,0,1-11.58,7.9A33.167,33.167,0,0,1-173.363,1.8q-12.332,0-19.438-6.692a22.245,22.245,0,0,1-7.106-16.919,22.711,22.711,0,0,1,3.233-12.069A21.127,21.127,0,0,1-187.612-42q5.828-2.82,16.806-4.925,14.813-2.782,20.528-5.188v-2.105q0-6.091-3.008-8.685T-164.64-65.5q-5.64,0-8.8,2.218T-178.551-55.494Zm28.273,17.145a132.075,132.075,0,0,1-12.858,3.233q-8.8,1.88-11.5,3.685a8.813,8.813,0,0,0-4.136,7.444,10.364,10.364,0,0,0,3.309,7.67,11.551,11.551,0,0,0,8.422,3.233,18.3,18.3,0,0,0,10.9-3.76,13.235,13.235,0,0,0,5.038-6.993q.827-2.707.827-10.3ZM-36.056,0h-21.13V-40.756q0-12.934-1.354-16.731a11.735,11.735,0,0,0-4.4-5.9A12.572,12.572,0,0,0-70.27-65.5a16.943,16.943,0,0,0-9.851,3.008A15.155,15.155,0,0,0-86.1-54.517q-1.617,4.963-1.617,18.348V0h-21.13V-79.857h19.626v11.73Q-78.767-81.662-62.9-81.662a31.7,31.7,0,0,1,12.783,2.519,21.419,21.419,0,0,1,8.76,6.429,23.29,23.29,0,0,1,4.136,8.873,66,66,0,0,1,1.166,14.212Zm12.182-79.857h11.73v-6.016q0-10.076,2.143-15.039A16.939,16.939,0,0,1-2.105-109q5.752-3.121,14.55-3.121a58.815,58.815,0,0,1,17.671,2.707L27.258-94.671a41.737,41.737,0,0,0-9.7-1.2q-4.587,0-6.58,2.143T8.986-85.5v5.64H24.777v16.618H8.986V0h-21.13V-63.239h-11.73ZM36.658-90.686v-19.551h21.13v19.551ZM36.658,0V-79.857h21.13V0ZM99.671,0H78.542V-79.857H98.167V-68.5q5.038-8.046,9.061-10.6a16.669,16.669,0,0,1,9.136-2.557,26.818,26.818,0,0,1,13.911,3.985l-6.542,18.423q-5.339-3.459-9.926-3.459a11.728,11.728,0,0,0-7.52,2.444q-3.083,2.444-4.85,8.835t-1.767,26.77ZM137.8-79.857h19.476v10.9q10.452-12.708,24.89-12.708A26.807,26.807,0,0,1,195.47-78.5a24.27,24.27,0,0,1,9.249,9.55,36.893,36.893,0,0,1,11.354-9.55,27.858,27.858,0,0,1,13.009-3.158q8.8,0,14.889,3.572a21.881,21.881,0,0,1,9.1,10.49q2.181,5.113,2.181,16.543V0h-21.13V-45.644q0-11.881-2.181-15.34-2.933-4.512-9.023-4.512a14.4,14.4,0,0,0-8.347,2.707,15.016,15.016,0,0,0-5.64,7.933Q207.2-49.629,207.2-38.35V0h-21.13V-43.764q0-11.655-1.128-15.039a9.6,9.6,0,0,0-3.5-5.038,11.053,11.053,0,0,0-6.429-1.654,15.4,15.4,0,0,0-8.8,2.632,14.437,14.437,0,0,0-5.6,7.595q-1.692,4.963-1.692,16.468V0H137.8ZM292.1-55.494l-19.175-3.459q3.233-11.58,11.129-17.145t23.461-5.564q14.137,0,21.055,3.346t9.738,8.5q2.82,5.151,2.82,18.912L340.9-26.243q0,10.527,1.015,15.528A45.323,45.323,0,0,0,345.71,0h-20.9q-.827-2.105-2.03-6.241-.526-1.88-.752-2.481a38.094,38.094,0,0,1-11.58,7.9A33.167,33.167,0,0,1,297.285,1.8q-12.332,0-19.438-6.692a22.245,22.245,0,0,1-7.106-16.919,22.711,22.711,0,0,1,3.233-12.069A21.127,21.127,0,0,1,283.035-42q5.828-2.82,16.806-4.925Q314.655-49.7,320.37-52.11v-2.105q0-6.091-3.008-8.685T306.007-65.5q-5.64,0-8.8,2.218T292.1-55.494ZM320.37-38.35a132.075,132.075,0,0,1-12.858,3.233q-8.8,1.88-11.5,3.685a8.813,8.813,0,0,0-4.136,7.444,10.365,10.365,0,0,0,3.309,7.67,11.551,11.551,0,0,0,8.422,3.233,18.3,18.3,0,0,0,10.9-3.76,13.235,13.235,0,0,0,5.038-6.993q.827-2.707.827-10.3Z" transform="translate(503.489 232.692)" fill="#312450"/>
    <path id="Path_584" data-name="Path 584" d="M-341.947-36.507h14.593a42.157,42.157,0,0,1,6.462.361,9.495,9.495,0,0,1,3.81,1.507,9.37,9.37,0,0,1,2.8,3.051,8.265,8.265,0,0,1,1.121,4.271,8.5,8.5,0,0,1-1.382,4.707,8.565,8.565,0,0,1-3.748,3.212,9.607,9.607,0,0,1,5.13,3.312,8.791,8.791,0,0,1,1.793,5.5,10.85,10.85,0,0,1-1.158,4.844,9.756,9.756,0,0,1-3.163,3.76A10.446,10.446,0,0,1-320.63-.249q-1.843.2-8.89.249h-12.426Zm7.371,6.076v8.442h4.831q4.308,0,5.354-.125a4.872,4.872,0,0,0,2.976-1.307,3.855,3.855,0,0,0,1.083-2.851,4.006,4.006,0,0,0-.934-2.752,4.227,4.227,0,0,0-2.777-1.282q-1.1-.125-6.3-.125Zm0,14.518v9.762h6.823a33.345,33.345,0,0,0,5.055-.224,4.568,4.568,0,0,0,2.677-1.457,4.484,4.484,0,0,0,1.033-3.1,4.763,4.763,0,0,0-.8-2.789,4.5,4.5,0,0,0-2.3-1.668,25.04,25.04,0,0,0-6.537-.523ZM-287.784,0V-3.959a10.193,10.193,0,0,1-3.8,3.337A10.646,10.646,0,0,1-296.55.6a9.713,9.713,0,0,1-4.781-1.17,6.91,6.91,0,0,1-3.063-3.287,14.668,14.668,0,0,1-.946-5.852V-26.446h7v12.152a33.7,33.7,0,0,0,.386,6.836,3.727,3.727,0,0,0,1.407,1.992,4.324,4.324,0,0,0,2.59.735,5.506,5.506,0,0,0,3.212-.984,5,5,0,0,0,1.942-2.44q.523-1.457.523-7.135V-26.446h7V0Zm13.746-30.032v-6.475h7v6.475Zm0,30.032V-26.446h7V0Zm14.169,0V-36.507h7V0Zm38.424,0h-6.5V-3.885A10.5,10.5,0,0,1-231.766-.51,9.807,9.807,0,0,1-236.211.6a10.073,10.073,0,0,1-7.807-3.673q-3.25-3.673-3.25-10.247,0-6.724,3.163-10.222a10.31,10.31,0,0,1,7.994-3.5,9.9,9.9,0,0,1,7.67,3.686V-36.507h7Zm-18.677-13.8q0,4.233,1.17,6.126a5.288,5.288,0,0,0,4.731,2.739,5.15,5.15,0,0,0,4.109-2.054q1.693-2.054,1.693-6.138,0-4.557-1.644-6.562a5.2,5.2,0,0,0-4.208-2,5.257,5.257,0,0,0-4.171,1.98Q-240.121-17.73-240.121-13.8Zm25.575-16.236v-6.475h7v6.475Zm0,30.032V-26.446h7V0Zm38.225,0h-7V-13.5a20.861,20.861,0,0,0-.448-5.541,3.886,3.886,0,0,0-1.457-1.955,4.164,4.164,0,0,0-2.428-.7,5.611,5.611,0,0,0-3.262,1,5.019,5.019,0,0,0-1.98,2.64,22.816,22.816,0,0,0-.535,6.076V0h-7V-26.446h6.5v3.885a10.589,10.589,0,0,1,8.716-4.482,10.5,10.5,0,0,1,4.233.834,7.093,7.093,0,0,1,2.9,2.129,7.713,7.713,0,0,1,1.37,2.938,21.857,21.857,0,0,1,.386,4.707Zm6.45,1.743,7.994.971a2.729,2.729,0,0,0,.921,1.917,5.261,5.261,0,0,0,3.138.747,8.148,8.148,0,0,0,4.109-.822,3.386,3.386,0,0,0,1.395-1.768,10.624,10.624,0,0,0,.324-3.212v-3.86A9.469,9.469,0,0,1-159.91,0a9.749,9.749,0,0,1-8.442-4.507,15.321,15.321,0,0,1-2.44-8.865q0-6.649,3.2-10.16a10.326,10.326,0,0,1,7.956-3.511,9.687,9.687,0,0,1,8.093,4.308v-3.71h6.549V-2.714a23.645,23.645,0,0,1-.772,7,8.67,8.67,0,0,1-2.167,3.636,9.585,9.585,0,0,1-3.723,2.067,19.6,19.6,0,0,1-5.889.747q-6.724,0-9.538-2.3A7.227,7.227,0,0,1-169.9,2.59Q-169.9,2.241-169.871,1.743Zm6.25-15.514q0,4.208,1.631,6.163a5.043,5.043,0,0,0,4.022,1.955,5.56,5.56,0,0,0,4.333-2q1.768-2,1.768-5.939,0-4.109-1.693-6.1a5.381,5.381,0,0,0-4.283-1.992,5.166,5.166,0,0,0-4.146,1.955Q-163.621-17.78-163.621-13.771Zm39.794-22.736h14.593a42.157,42.157,0,0,1,6.462.361,9.495,9.495,0,0,1,3.81,1.507,9.37,9.37,0,0,1,2.8,3.051,8.265,8.265,0,0,1,1.121,4.271,8.5,8.5,0,0,1-1.382,4.707A8.565,8.565,0,0,1-100.17-19.4a9.607,9.607,0,0,1,5.13,3.312,8.791,8.791,0,0,1,1.793,5.5A10.85,10.85,0,0,1-94.4-5.74a9.756,9.756,0,0,1-3.163,3.76A10.446,10.446,0,0,1-102.51-.249q-1.843.2-8.89.249h-12.426Zm7.371,6.076v8.442h4.831q4.308,0,5.354-.125a4.872,4.872,0,0,0,2.976-1.307,3.855,3.855,0,0,0,1.083-2.851,4.006,4.006,0,0,0-.934-2.752,4.227,4.227,0,0,0-2.777-1.282q-1.1-.125-6.3-.125Zm0,14.518v9.762h6.823a33.345,33.345,0,0,0,5.055-.224A4.568,4.568,0,0,0-101.9-7.832a4.484,4.484,0,0,0,1.033-3.1,4.763,4.763,0,0,0-.8-2.789,4.5,4.5,0,0,0-2.3-1.668,25.04,25.04,0,0,0-6.537-.523ZM-69.664,0V-3.959a10.193,10.193,0,0,1-3.8,3.337A10.646,10.646,0,0,1-78.43.6a9.713,9.713,0,0,1-4.781-1.17A6.91,6.91,0,0,1-86.274-3.86a14.668,14.668,0,0,1-.946-5.852V-26.446h7v12.152a33.7,33.7,0,0,0,.386,6.836A3.727,3.727,0,0,0-78.43-5.466a4.324,4.324,0,0,0,2.59.735,5.506,5.506,0,0,0,3.212-.984,5,5,0,0,0,1.942-2.44q.523-1.457.523-7.135V-26.446h7V0Zm11.281-7.545,7.022-1.071a5.146,5.146,0,0,0,1.818,3.1,6.143,6.143,0,0,0,3.835,1.058,6.923,6.923,0,0,0,4.084-1A2.223,2.223,0,0,0-40.7-7.321a1.837,1.837,0,0,0-.5-1.32,5.576,5.576,0,0,0-2.341-.921q-8.467-1.868-10.733-3.412a6.813,6.813,0,0,1-3.138-5.952A7.335,7.335,0,0,1-54.7-24.7q2.714-2.341,8.417-2.341,5.429,0,8.068,1.768a9.037,9.037,0,0,1,3.636,5.229l-6.6,1.22a4.08,4.08,0,0,0-1.606-2.366,5.873,5.873,0,0,0-3.374-.822,7.6,7.6,0,0,0-3.959.772,1.658,1.658,0,0,0-.8,1.419,1.547,1.547,0,0,0,.7,1.27q.946.7,6.537,1.967t7.807,3.113a6.469,6.469,0,0,1,2.191,5.2,7.989,7.989,0,0,1-3.038,6.25Q-39.757.6-45.708.6q-5.4,0-8.554-2.191A10.1,10.1,0,0,1-58.384-7.545Zm30.829-22.487v-6.475h7v6.475Zm0,30.032V-26.446h7V0ZM10.671,0h-7V-13.5a20.861,20.861,0,0,0-.448-5.541,3.886,3.886,0,0,0-1.457-1.955,4.164,4.164,0,0,0-2.428-.7,5.611,5.611,0,0,0-3.262,1,5.019,5.019,0,0,0-1.98,2.64,22.816,22.816,0,0,0-.535,6.076V0h-7V-26.446h6.5v3.885a10.589,10.589,0,0,1,8.716-4.482,10.5,10.5,0,0,1,4.233.834,7.093,7.093,0,0,1,2.9,2.129,7.713,7.713,0,0,1,1.37,2.938,21.857,21.857,0,0,1,.386,4.707ZM33.083-8.417l6.973,1.17a11.437,11.437,0,0,1-4.246,5.84,12.473,12.473,0,0,1-7.259,2q-6.9,0-10.21-4.507a15.143,15.143,0,0,1-2.615-9.114q0-6.574,3.437-10.3a11.318,11.318,0,0,1,8.691-3.723,11.739,11.739,0,0,1,9.313,3.9q3.412,3.9,3.262,11.941H22.9a7.08,7.08,0,0,0,1.693,4.844,5.3,5.3,0,0,0,4.034,1.731,4.285,4.285,0,0,0,2.764-.9A5.536,5.536,0,0,0,33.083-8.417Zm.4-7.072a6.737,6.737,0,0,0-1.569-4.619,4.814,4.814,0,0,0-3.636-1.581,4.86,4.86,0,0,0-3.785,1.668,6.456,6.456,0,0,0-1.469,4.532ZM43.666-7.545l7.022-1.071a5.146,5.146,0,0,0,1.818,3.1,6.143,6.143,0,0,0,3.835,1.058,6.923,6.923,0,0,0,4.084-1,2.223,2.223,0,0,0,.921-1.868,1.837,1.837,0,0,0-.5-1.32,5.576,5.576,0,0,0-2.341-.921q-8.467-1.868-10.733-3.412a6.813,6.813,0,0,1-3.138-5.952A7.335,7.335,0,0,1,47.352-24.7q2.714-2.341,8.417-2.341,5.429,0,8.068,1.768a9.037,9.037,0,0,1,3.636,5.229l-6.6,1.22a4.08,4.08,0,0,0-1.606-2.366,5.873,5.873,0,0,0-3.374-.822,7.6,7.6,0,0,0-3.959.772,1.658,1.658,0,0,0-.8,1.419,1.547,1.547,0,0,0,.7,1.27q.946.7,6.537,1.967t7.807,3.113a6.469,6.469,0,0,1,2.191,5.2,7.989,7.989,0,0,1-3.038,6.25Q62.293.6,56.342.6q-5.4,0-8.554-2.191A10.1,10.1,0,0,1,43.666-7.545Zm28.364,0,7.022-1.071a5.146,5.146,0,0,0,1.818,3.1,6.143,6.143,0,0,0,3.835,1.058,6.923,6.923,0,0,0,4.084-1,2.223,2.223,0,0,0,.921-1.868,1.837,1.837,0,0,0-.5-1.32,5.576,5.576,0,0,0-2.341-.921q-8.467-1.868-10.733-3.412A6.813,6.813,0,0,1,73-18.926,7.335,7.335,0,0,1,75.716-24.7q2.714-2.341,8.417-2.341,5.429,0,8.068,1.768a9.037,9.037,0,0,1,3.636,5.229l-6.6,1.22a4.08,4.08,0,0,0-1.606-2.366,5.873,5.873,0,0,0-3.374-.822,7.6,7.6,0,0,0-3.959.772,1.658,1.658,0,0,0-.8,1.419,1.547,1.547,0,0,0,.7,1.27q.946.7,6.537,1.967t7.807,3.113a6.469,6.469,0,0,1,2.191,5.2A7.989,7.989,0,0,1,93.7-2.017Q90.657.6,84.705.6q-5.4,0-8.554-2.191A10.1,10.1,0,0,1,72.03-7.545Zm43.181-4.333,7.172-.7a8.749,8.749,0,0,0,2.627,5.3,7.943,7.943,0,0,0,5.342,1.693,8.21,8.21,0,0,0,5.366-1.507,4.482,4.482,0,0,0,1.805-3.524,3.323,3.323,0,0,0-.76-2.2,6.07,6.07,0,0,0-2.652-1.581q-1.295-.448-5.9-1.594-5.927-1.469-8.317-3.611a9.5,9.5,0,0,1-3.362-7.346,9.385,9.385,0,0,1,1.581-5.217,9.9,9.9,0,0,1,4.557-3.7,18.265,18.265,0,0,1,7.184-1.27q6.873,0,10.347,3.013a10.635,10.635,0,0,1,3.648,8.043l-7.371.324a6.259,6.259,0,0,0-2.03-4.047,7.431,7.431,0,0,0-4.669-1.233,8.422,8.422,0,0,0-5.03,1.32,2.66,2.66,0,0,0-1.17,2.266,2.8,2.8,0,0,0,1.1,2.216q1.395,1.17,6.773,2.44a35.745,35.745,0,0,1,7.956,2.627,10.254,10.254,0,0,1,4.034,3.71,10.852,10.852,0,0,1,1.457,5.815,10.751,10.751,0,0,1-1.743,5.877A10.447,10.447,0,0,1,138.22-.685,20.677,20.677,0,0,1,130.277.647q-6.923,0-10.633-3.2T115.211-11.878ZM149.427-13.6a14.306,14.306,0,0,1,1.718-6.749,11.794,11.794,0,0,1,4.868-4.98,14.448,14.448,0,0,1,7.035-1.718,13.2,13.2,0,0,1,9.836,3.9,13.465,13.465,0,0,1,3.835,9.849,13.626,13.626,0,0,1-3.872,9.948A13.088,13.088,0,0,1,163.1.6a15.357,15.357,0,0,1-6.935-1.644,11.275,11.275,0,0,1-5.018-4.819A16.055,16.055,0,0,1,149.427-13.6Zm7.172.374A8.762,8.762,0,0,0,158.466-7.2,5.934,5.934,0,0,0,163.073-5.1,5.9,5.9,0,0,0,167.667-7.2a8.883,8.883,0,0,0,1.855-6.076,8.72,8.72,0,0,0-1.855-5.977,5.9,5.9,0,0,0-4.594-2.092,5.934,5.934,0,0,0-4.607,2.092A8.762,8.762,0,0,0,156.6-13.223ZM182.2,0V-36.507h7V0Zm31.576,0V-3.959a10.193,10.193,0,0,1-3.8,3.337A10.646,10.646,0,0,1,205.009.6a9.713,9.713,0,0,1-4.781-1.17,6.91,6.91,0,0,1-3.063-3.287,14.668,14.668,0,0,1-.946-5.852V-26.446h7v12.152a33.7,33.7,0,0,0,.386,6.836,3.727,3.727,0,0,0,1.407,1.992,4.324,4.324,0,0,0,2.59.735,5.506,5.506,0,0,0,3.212-.984,5,5,0,0,0,1.942-2.44q.523-1.457.523-7.135V-26.446h7V0Zm25.874-26.446v5.578h-4.781V-10.21A26.509,26.509,0,0,0,235-6.437a1.537,1.537,0,0,0,.623.884,1.975,1.975,0,0,0,1.183.349,9.052,9.052,0,0,0,2.814-.672l.6,5.429A13.91,13.91,0,0,1,234.692.6a8.769,8.769,0,0,1-3.412-.635,4.979,4.979,0,0,1-2.229-1.644,6.487,6.487,0,0,1-.984-2.727,33.919,33.919,0,0,1-.224-4.931v-11.53h-3.212v-5.578h3.212V-31.7l7.022-4.084v9.338Zm4.856-3.586v-6.475h7v6.475ZM244.5,0V-26.446h7V0Zm12.551-13.6a14.306,14.306,0,0,1,1.718-6.749,11.794,11.794,0,0,1,4.868-4.98,14.448,14.448,0,0,1,7.035-1.718,13.2,13.2,0,0,1,9.836,3.9,13.465,13.465,0,0,1,3.835,9.849,13.626,13.626,0,0,1-3.872,9.948A13.088,13.088,0,0,1,270.726.6a15.357,15.357,0,0,1-6.935-1.644,11.275,11.275,0,0,1-5.018-4.819A16.055,16.055,0,0,1,257.054-13.6Zm7.172.374A8.762,8.762,0,0,0,266.094-7.2,5.934,5.934,0,0,0,270.7-5.1,5.9,5.9,0,0,0,275.3-7.2a8.883,8.883,0,0,0,1.855-6.076A8.72,8.72,0,0,0,275.3-19.25a5.9,5.9,0,0,0-4.594-2.092,5.934,5.934,0,0,0-4.607,2.092A8.762,8.762,0,0,0,264.226-13.223ZM313.882,0h-7V-13.5a20.861,20.861,0,0,0-.448-5.541,3.886,3.886,0,0,0-1.457-1.955,4.164,4.164,0,0,0-2.428-.7,5.611,5.611,0,0,0-3.262,1,5.019,5.019,0,0,0-1.98,2.64,22.816,22.816,0,0,0-.535,6.076V0h-7V-26.446h6.5v3.885a10.589,10.589,0,0,1,8.716-4.482,10.5,10.5,0,0,1,4.233.834,7.093,7.093,0,0,1,2.9,2.129,7.713,7.713,0,0,1,1.37,2.938,21.857,21.857,0,0,1,.386,4.707Zm4.632-7.545,7.022-1.071a5.146,5.146,0,0,0,1.818,3.1,6.143,6.143,0,0,0,3.835,1.058,6.923,6.923,0,0,0,4.084-1,2.223,2.223,0,0,0,.921-1.868,1.837,1.837,0,0,0-.5-1.32,5.576,5.576,0,0,0-2.341-.921q-8.467-1.868-10.733-3.412a6.813,6.813,0,0,1-3.138-5.952A7.335,7.335,0,0,1,322.2-24.7q2.714-2.341,8.417-2.341,5.429,0,8.068,1.768a9.037,9.037,0,0,1,3.636,5.229l-6.6,1.22a4.08,4.08,0,0,0-1.606-2.366,5.873,5.873,0,0,0-3.374-.822,7.6,7.6,0,0,0-3.959.772,1.658,1.658,0,0,0-.8,1.419,1.547,1.547,0,0,0,.7,1.27q.946.7,6.537,1.967t7.807,3.113a6.469,6.469,0,0,1,2.191,5.2,7.989,7.989,0,0,1-3.038,6.25Q337.14.6,331.189.6q-5.4,0-8.554-2.191A10.1,10.1,0,0,1,318.513-7.545Z" transform="translate(505.989 286.692)" fill="#635f5c"/>
  </g>
</svg>
