<svg xmlns="http://www.w3.org/2000/svg" xmlns:xlink="http://www.w3.org/1999/xlink" width="749" height="254" viewBox="0 0 749 254">
  <defs>
    <linearGradient id="linear-gradient" x1="0.179" y1="0.112" x2="0.668" y2="0.964" gradientUnits="objectBoundingBox">
      <stop offset="0" stop-color="#0a0a7a"/>
      <stop offset="0.51" stop-color="#ed1c24"/>
      <stop offset="1" stop-color="#fff05a"/>
    </linearGradient>
  </defs>
  <g id="pfllc_logo" transform="translate(-115.274 -155.341)">
    <rect id="Rectangle_31" data-name="Rectangle 31" width="749" height="254" transform="translate(115.274 155.341)" fill="rgba(255,255,255,0)"/>
    <g id="Layer_3" data-name="Layer 3" transform="translate(119.188 207.029)">
      <path id="Union_3" data-name="Union 3" d="M66.274,154.5c-18.419-3.085-30.48-10.965-30.006-19.605,1.424-25.775,87.974-37.995,111.743-34.808a4.642,4.642,0,0,1,3.665,6.349l-.081.124a4.625,4.625,0,0,1-5.12,2.838c-15.266-2.9-75.912,2.628-96.6,20.5C35.012,142.732,52.4,153.023,70.9,154.474q-1.276.074-2.554.074Q67.309,154.548,66.274,154.5Zm-12.463-12.33C55.3,134.544,71,127.538,85.892,123.98c18.6-4.442,40.858-5.974,51.772-5.12a3.981,3.981,0,0,1,2.79,6.468l-.081.111a3.98,3.98,0,0,1-4.037,1.365c-12.937-3.127-64.059,2.429-73.514,15.659-4.945,6.915,6.443,11.247,16.107,9.945l-1.758.627a24.677,24.677,0,0,1-4.406.374C63.482,153.41,52.479,148.982,53.811,142.169ZM78.938,152.4h0c-9.225-.453-9.156-4.082-9.05-4.808.833-5.615,16.466-9.886,31.7-12.045a2.484,2.484,0,0,1,2.706,3.222v.051a2.472,2.472,0,0,1-2.1,1.707c-9.366.925-19.332,2.927-24.4,6.122-1.408.9-5.549,3.971,1.146,5.75a1.089,1.089,0,0,1-.186-1.219c.721-1.493,5.03-2.952,10.423-4.054a97.4,97.4,0,0,1,17.652-1.915,2.349,2.349,0,0,1,.823,4.552l-.094.013a2.33,2.33,0,0,1-1.707,0c-3.489-1.42-21.983-.968-26.908,2.623h0Zm-42.778-9.42c-2.133-1.426-4.859-3.452-6.9-4.988-2.215-1.877-6.827-5.777-8.107-11.366-3.23-14.225,18.774-27.1,40.44-34.4,36.113-12.156,76.987-13.99,91.152-12.548a4.85,4.85,0,0,1,4.339,5.38.6.6,0,0,0-.038.192,4.856,4.856,0,0,1-5.325,4.267c-11.776-1.186-43.647-.056-72.187,7.181-41.6,10.539-69.257,31.347-38.574,49.139C39.5,145.019,37.594,143.841,36.16,142.975Zm-19.409-17.72c-1.493-1.945-3.32-4.629-4.693-6.639a19.162,19.162,0,0,1-2.671-6.311C3.751,86.442,61.513,67.119,106.581,59.852a5.214,5.214,0,0,1,6,4.425v.106a5.205,5.205,0,0,1-4.42,5.825c-50.5,7.377-111.807,28.535-89.194,57.748ZM4.433,102.749c-.781-2.309-1.638-5.491-2.3-7.856-7.565-44.7,122.479-64.46,144.285-57a3.712,3.712,0,0,1,2,1.608l.056.094a3.725,3.725,0,0,1-3.61,5.546C112.64,41.762-8.2,62.314,5.538,105.736ZM0,76.829c.022-2.428.252-5.675.4-8.106C3.1,42.786,55.185,26.829,94.293,21.5a4.131,4.131,0,0,1,4.062,1.89l.047.082a4.142,4.142,0,0,1-2.952,6.31C54.583,35.2,1.084,49.885.086,80.392ZM5.859,46.835l1.28-2.949C22.114,12.877,105.7,4.074,117.836,8.307a1.657,1.657,0,0,1,.393.2l.039.029a1.933,1.933,0,0,1-1.113,3.554c-26.338-.883-101.6,9.6-113.975,42.381C3.9,52.151,5,49.118,5.859,46.835Zm13.47-21.816,2.47-2.706C39.454,4.59,82.521-1.554,97.646.324a1.152,1.152,0,0,1-.123,2.3c-21.03.367-66.249,7.539-83.157,28.723C15.787,29.389,17.814,26.88,19.329,25.019Z" transform="translate(0 0)" fill="url(#linear-gradient)"/>
    </g>
    <text id="Planfirma" transform="translate(312.274 282.029)" fill="#0a0a7a" font-size="71" font-family="PalatinoLinotype-Bold, Palatino Linotype" font-weight="700" letter-spacing="0.14em"><tspan x="0" y="0">PLANFIRMA</tspan></text>
    <text id="Where_Innovation_Meets_Excellence" data-name="Where Innovation Meets Excellence" transform="translate(309.274 337.341)" fill="#181536" font-size="27" font-family="Poppins-MediumItalic, Poppins" font-weight="500" font-style="italic"><tspan x="0" y="0">WHERE INNOVATION MEETS EXCELLENCE</tspan></text>
  </g>
</svg>
